<?xml version="1.0" encoding="UTF-8"?>
<!DOCTYPE svg PUBLIC "-//W3C//DTD SVG 1.1//EN" "http://www.w3.org/Graphics/SVG/1.1/DTD/svg11.dtd">
<svg xmlns="http://www.w3.org/2000/svg" version="1.1" width="200px" height="200px" style="shape-rendering:geometricPrecision; text-rendering:geometricPrecision; image-rendering:optimizeQuality; fill-rule:evenodd; clip-rule:evenodd" xmlns:xlink="http://www.w3.org/1999/xlink">
<g><path style="opacity:0.975" fill="#fbc21b" d="M 151.5,73.5 C 148.167,70.5 144.833,67.5 141.5,64.5C 142.36,61.089 143.526,57.7556 145,54.5C 145.498,51.5184 145.665,48.5184 145.5,45.5C 144.448,45.3505 143.448,45.5172 142.5,46C 138.22,50.1092 134.22,54.2758 130.5,58.5C 122.084,55.6532 113.418,54.3198 104.5,54.5C 101.831,38.6863 102.664,23.0197 107,7.5C 109.541,2.93146 113.375,1.43146 118.5,3C 122.41,4.9066 125.744,7.57327 128.5,11C 135.89,14.7546 143.556,15.2546 151.5,12.5C 158.123,12.5157 162.623,15.5157 165,21.5C 165.13,25.9508 165.796,30.2841 167,34.5C 171.497,37.7494 176.163,40.7494 181,43.5C 185.748,48.9576 185.582,54.1242 180.5,59C 168.59,59.6217 158.923,64.4551 151.5,73.5 Z"/></g>
<g><path style="opacity:1" fill="#cf9b1a" d="M 141.5,64.5 C 137.927,62.2155 134.26,60.2155 130.5,58.5C 134.22,54.2758 138.22,50.1092 142.5,46C 143.448,45.5172 144.448,45.3505 145.5,45.5C 145.665,48.5184 145.498,51.5184 145,54.5C 143.526,57.7556 142.36,61.089 141.5,64.5 Z"/></g>
<g><path style="opacity:1" fill="#8e6e62" d="M 104.5,54.5 C 113.418,54.3198 122.084,55.6532 130.5,58.5C 134.26,60.2155 137.927,62.2155 141.5,64.5C 144.833,67.5 148.167,70.5 151.5,73.5C 154.658,76.7942 155.158,80.4608 153,84.5C 152.184,85.8228 151.017,86.4894 149.5,86.5C 137.17,69.0353 120.17,61.3687 98.5,63.5C 97.8129,58.5063 99.8129,55.5063 104.5,54.5 Z"/></g>
<g><path style="opacity:0.986" fill="#fbc11b" d="M 98.5,63.5 C 120.17,61.3687 137.17,69.0353 149.5,86.5C 155.871,95.9136 160.038,106.247 162,117.5C 180.587,130.279 187.587,147.613 183,169.5C 173.641,184.945 159.807,193.445 141.5,195C 116.503,198.317 91.5031,198.317 66.5,195C 21.8197,186.816 7.31966,161.316 23,118.5C 38.0305,86.3885 63.1972,68.0552 98.5,63.5 Z"/></g>
<g><path style="opacity:1" fill="#434241" d="M 110.5,85.5 C 115.098,87.1454 119.765,88.8121 124.5,90.5C 124.833,91 125.167,91.5 125.5,92C 124.119,94.1349 123.119,96.4682 122.5,99C 128.92,103.249 134.587,108.416 139.5,114.5C 136.149,117.848 132.482,120.848 128.5,123.5C 124.847,121.011 121.347,118.344 118,115.5C 115.322,118.67 113.489,122.337 112.5,126.5C 119.969,132.136 125.802,139.136 130,147.5C 132.022,161.826 125.855,170.326 111.5,173C 106.139,173.609 100.805,173.442 95.5,172.5C 95.767,174.971 94.767,176.638 92.5,177.5C 87.7167,176.272 83.3834,174.272 79.5,171.5C 80.5481,169.544 81.0481,167.544 81,165.5C 72.5616,159.717 65.3949,152.717 59.5,144.5C 63.3698,141.066 67.7031,138.399 72.5,136.5C 77.1974,140.707 82.1974,144.707 87.5,148.5C 90.1412,143.42 91.6412,138.086 92,132.5C 86.6464,128.144 81.6464,123.477 77,118.5C 71.8142,101.568 78.1475,92.2349 96,90.5C 99.9727,90.4327 103.806,91.0994 107.5,92.5C 108.783,90.2699 109.783,87.9366 110.5,85.5 Z"/></g>
<g><path style="opacity:1" fill="#eab620" d="M 98.5,106.5 C 99.8333,106.5 101.167,106.5 102.5,106.5C 102.101,109.696 101.101,112.696 99.5,115.5C 94.6341,112.927 94.3008,109.927 98.5,106.5 Z"/></g>
<g><path style="opacity:1" fill="#ebb71f" d="M 105.5,145.5 C 108.138,146.242 109.471,148.075 109.5,151C 108.529,154.819 106.195,155.986 102.5,154.5C 103.705,151.55 104.705,148.55 105.5,145.5 Z"/></g>
</svg>
