<svg width="378" height="609" viewBox="0 0 378 609" fill="none" xmlns="http://www.w3.org/2000/svg">
    <path d="M218.697 532.558c32.166-10.166 83.642-67.966 92.482-113.205 9.725-49.765-11.367-82.938 14.286-131.288 20.139-37.957 25.79-73.913 23.115-121.879-3.303-59.242-23.624-111.96-87.698-138.628C81.605-47.054 0 53.478 0 53.478v435.726s71.05 90.021 218.697 43.354z" fill="url(#paint0_linear)"/>
    <path d="M82.285 359.117s3.924 44.608-17.922 72.103l51.078-44.986-33.156-27.117z" fill="url(#paint1_linear)"/>
    <path d="M250.261 368.796s-11.166 38.596 5.369 63.868l-51.035-45.939 45.666-17.929z" fill="url(#paint2_linear)"/>
    <path d="M232.396 374.357c-6.149 20.106-26.501 32.882-47.699 29.042-4.813-.872-8.864-2.606-12.318-5a35.415 35.415 0 0 1-24.058 4.164c-11.352-2.056-20.457-9.291-25.335-18.824a37.832 37.832 0 0 1-9.547-.508c-19.653-3.56-32.968-21.731-30.801-41.286a38.215 38.215 0 0 0-.57 2.575c-3.718 20.525 9.906 40.178 30.431 43.896 3.224.584 6.426.74 9.548.508 4.878 9.534 13.983 16.769 25.334 18.825a35.423 35.423 0 0 0 24.059-4.164c3.454 2.393 7.504 4.128 12.318 5 21.198 3.84 41.55-8.936 47.699-29.042 15.601-3.102 28.48-15.417 31.488-32.018.156-.863.273-1.723.372-2.582-3.821 15.276-16.148 26.477-30.921 29.414z" fill="#8E24AA"/>
    <path opacity=".4" d="M112.64 208.168c1.905-6.919-1.265-13.804-7.837-15.435-5.973-1.482-11.918 2.992-13.95 9.875-2.154 7.298.17 14.346 6.103 15.979 5.933 1.634 13.779-3.501 15.684-10.419z" fill="#8E24AA"/>
    <path d="M102.994 214.782c6.154 0 11.142-4.988 11.142-11.142 0-6.154-4.988-11.143-11.142-11.143-6.154 0-11.143 4.989-11.143 11.143 0 6.154 4.989 11.142 11.143 11.142z" fill="#FCE5FF"/>
    <path d="M102.994 212.719c-5.806 0-10.574-4.441-11.095-10.111-.031.34-.048.684-.048 1.032 0 6.154 4.989 11.142 11.143 11.142 6.154 0 11.142-4.988 11.142-11.142 0-.348-.016-.692-.048-1.032-.52 5.67-5.288 10.111-11.094 10.111z" fill="#E1BEE7"/>
    <path d="M102.992 200.498c0-.756.244-1.455.658-2.023a5.208 5.208 0 1 0 4.551 5.165c0-.062-.002-.122-.004-.183a3.444 3.444 0 0 1-5.205-2.959z" fill="#6A1B9A"/>
    <path d="M103.766 202.673a3.427 3.427 0 0 1-.774-2.175c0-.756.244-1.455.658-2.023a5.208 5.208 0 0 0-5.756 6.222 7.134 7.134 0 0 0 5.872-2.024z" fill="#8E24AA"/>
    <g opacity=".4">
        <path opacity=".4" d="M75.714 267.835c-.09-2.038-1.266-3.452-2.98-4.057-1.273-.953-2.999-1.287-4.47-.542a92.181 92.181 0 0 0-1.967-.098c.378-5.225.793-10.447 1.25-15.665.39-4.435.809-8.868 1.255-13.298.229-2.275-2.168-4.455-4.357-4.357-2.557.114-4.112 1.92-4.357 4.357a1041.21 1041.21 0 0 0-2.512 29.021 94.335 94.335 0 0 0-17.206 2.525l7.75-35.579c.485-2.221-.663-4.817-3.043-5.359-2.198-.501-4.84.661-5.36 3.043l-8.811 40.45a4.862 4.862 0 0 0-.092 1.388c-.648.988-.91 2.206-.517 3.418.698 2.158 3.04 3.803 5.36 3.043a91.05 91.05 0 0 1 9.004-2.457 88.302 88.302 0 0 1 6.573-1.175l.472-.06a89.347 89.347 0 0 1 5.276-.486 1025.04 1025.04 0 0 0-.542 9.047c-.244 4.446-.46 8.893-.647 13.341-.096 2.281 2.073 4.46 4.357 4.358 2.443-.11 4.254-1.915 4.357-4.358.317-7.507.717-15.011 1.197-22.509 1.44.049 2.879.132 4.316.249.428.094.874.137 1.337.117 2.274-.099 4.466-1.933 4.357-4.357zM293.021 267.835c-.091-2.038-1.267-3.452-2.981-4.057-1.273-.953-2.998-1.287-4.47-.542-.655-.04-1.31-.072-1.967-.098.379-5.225.793-10.447 1.251-15.665.389-4.435.808-8.868 1.254-13.298.229-2.275-2.167-4.455-4.357-4.357-2.556.114-4.112 1.92-4.357 4.357-.972 9.661-1.81 19.336-2.512 29.021a94.337 94.337 0 0 0-17.206 2.525l7.751-35.579c.484-2.221-.664-4.817-3.043-5.359-2.199-.501-4.841.661-5.36 3.043l-8.812 40.45a4.859 4.859 0 0 0-.092 1.388c-.648.988-.909 2.206-.517 3.418.699 2.158 3.041 3.803 5.36 3.043a91.03 91.03 0 0 1 9.005-2.457 88.06 88.06 0 0 1 6.573-1.175l.472-.06a89.376 89.376 0 0 1 5.276-.486c-.193 3.015-.376 6.031-.542 9.047-.245 4.446-.46 8.893-.648 13.341-.096 2.281 2.073 4.46 4.357 4.358 2.444-.11 4.254-1.915 4.358-4.358.317-7.507.717-15.011 1.196-22.509a91.55 91.55 0 0 1 4.316.249c.428.094.874.137 1.338.117 2.274-.099 4.465-1.933 4.357-4.357z" fill="#8E24AA"/>
    </g>
    <path d="M79.794 263.385c-.092-2.038-1.267-3.452-2.981-4.056-1.273-.954-2.999-1.288-4.47-.543a92.181 92.181 0 0 0-1.967-.098c.378-5.225.793-10.447 1.25-15.665.39-4.435.81-8.868 1.255-13.298.229-2.275-2.168-4.455-4.357-4.357-2.556.114-4.112 1.92-4.357 4.357-.973 9.661-1.81 19.336-2.512 29.021a94.422 94.422 0 0 0-17.206 2.525l7.75-35.579c.485-2.221-.663-4.817-3.042-5.359-2.2-.501-4.841.661-5.36 3.043l-8.812 40.45a4.865 4.865 0 0 0-.092 1.388c-.648.988-.91 2.206-.517 3.418.698 2.158 3.04 3.803 5.36 3.043a91.042 91.042 0 0 1 9.005-2.457 88.276 88.276 0 0 1 6.573-1.175l.472-.059a89.347 89.347 0 0 1 5.276-.487c-.193 3.015-.377 6.031-.543 9.047-.244 4.446-.459 8.893-.647 13.342-.096 2.28 2.073 4.459 4.357 4.357 2.443-.11 4.254-1.915 4.357-4.357.317-7.508.717-15.012 1.197-22.51 1.44.049 2.879.132 4.316.249.428.094.874.137 1.337.117 2.274-.099 4.466-1.933 4.358-4.357zM297.1 263.385c-.091-2.038-1.267-3.452-2.981-4.056-1.273-.954-2.998-1.288-4.469-.543a92.467 92.467 0 0 0-1.967-.098c.378-5.225.792-10.447 1.25-15.665.389-4.435.808-8.868 1.254-13.298.229-2.275-2.167-4.455-4.357-4.357-2.556.114-4.112 1.92-4.357 4.357-.972 9.661-1.81 19.336-2.512 29.021a94.437 94.437 0 0 0-17.206 2.525l7.751-35.579c.484-2.221-.664-4.817-3.043-5.359-2.199-.501-4.841.661-5.36 3.043l-8.812 40.45a4.861 4.861 0 0 0-.092 1.388c-.648.988-.909 2.206-.517 3.418.699 2.158 3.041 3.803 5.36 3.043a91.03 91.03 0 0 1 9.005-2.457 88.06 88.06 0 0 1 6.573-1.175l.472-.059a89.376 89.376 0 0 1 5.276-.487c-.193 3.015-.376 6.031-.542 9.047-.245 4.446-.46 8.893-.648 13.342-.096 2.28 2.073 4.459 4.358 4.357 2.443-.11 4.254-1.915 4.357-4.357.317-7.508.717-15.012 1.196-22.51a91.55 91.55 0 0 1 4.316.249c.428.094.874.137 1.338.117 2.274-.099 4.466-1.933 4.357-4.357z" fill="#fff"/>
    <path d="M322.869 72.86c7.893 4.591 16.688 22.003 54.76 21.261 0 0-6.028 18.12-40.546 19.458-34.518 1.337-14.214-40.719-14.214-40.719z" fill="url(#paint3_linear)"/>
    <path d="M299.735 50.914c5.206 4.429 19.117 16.322 53.419 10.018 0 0-8.646 24.103-31.521 20.457-35.616-5.677-21.898-30.475-21.898-30.475z" fill="url(#paint4_linear)"/>
    <path d="M341.336 108.292s9.655 26.682 25.971 35.896c0 0-25.217 1.54-37.454-12.922l11.483-22.974z" fill="#9F39B5"/>
    <path d="M329.365 280.366c-11.961 30.814-2.169 68.639 29.228 87.18 0 0-20.8 12.375-42.399-1.112-38.022-23.743 13.171-86.068 13.171-86.068z" fill="#AB47BC"/>
    <path d="M305.341 345.799s6.451 14.255 20.913 28.038c0 0-7.787 3.811-12.793.176-5.006-3.636-8.12-28.214-8.12-28.214z" fill="#AB47BC"/>
    <path opacity=".4" d="M164.902 169.119c4.878-17.717-2.125-34.608-18.956-38.783-15.295-3.795-31.892 5.868-37.094 23.492-5.517 18.688.693 37.789 15.887 41.972 15.193 4.183 35.285-8.964 40.163-26.681z" fill="#8E24AA"/>
    <path d="M140.201 186.057c15.758 0 28.533-12.775 28.533-28.534 0-15.759-12.775-28.534-28.533-28.534-15.759 0-28.534 12.775-28.534 28.534 0 15.759 12.775 28.534 28.534 28.534z" fill="#FCE5FF"/>
    <path d="M140.201 180.772c-14.868 0-27.078-11.372-28.411-25.891a28.84 28.84 0 0 0-.123 2.642c0 15.759 12.775 28.534 28.534 28.534 15.758 0 28.533-12.775 28.533-28.534 0-.891-.043-1.772-.123-2.642-1.333 14.519-13.543 25.891-28.41 25.891z" fill="#E1BEE7"/>
    <path d="M140.196 149.478a8.77 8.77 0 0 1 1.685-5.181 13.316 13.316 0 0 0-1.68-.109c-7.365 0-13.336 5.97-13.336 13.335 0 7.365 5.971 13.336 13.336 13.336s13.335-5.971 13.335-13.336c0-.157-.006-.312-.012-.467a8.818 8.818 0 0 1-13.328-7.578z" fill="#6A1B9A"/>
    <path d="M142.179 155.049a8.784 8.784 0 0 1-1.983-5.571 8.77 8.77 0 0 1 1.685-5.181 13.316 13.316 0 0 0-1.68-.109c-7.365 0-13.336 5.97-13.336 13.335 0 .928.095 1.834.276 2.708.702.082 1.416.125 2.14.125 5.03 0 9.586-2.027 12.898-5.307z" fill="#8E24AA"/>
    <path d="M187.74 80.764s.955 50.041 30.637 51.934c0 0-16.208-18.637-10.532-51.6l-20.105-.334z" fill="url(#paint5_linear)"/>
    <path d="M276.1 115.843s31.343 39.022 9.773 59.5c0 0 .494-24.694-24.991-46.357l15.218-13.143z" fill="url(#paint6_linear)"/>
    <path d="M260.308 120.02s19.119 23.803 5.961 36.295c0 0 .302-15.064-15.244-28.278l9.283-8.017z" fill="url(#paint7_linear)"/>
    <path d="M54.093 104.139s-10.796 58.573 23.362 67.844c0 0-14.462-25.588 0-62.671l-23.362-5.173z" fill="url(#paint8_linear)"/>
    <path d="M23.788 64.573S1.25 106.49 24.967 121.897c0 0-4.744-23.001 15.327-47.673l-16.506-9.65z" fill="url(#paint9_linear)"/>
    <path d="M44.336 104.879s-14.364 35.871 6.174 46.14c0 0-5.923-18.125 8.022-39.859l-14.196-6.281z" fill="url(#paint10_linear)"/>
    <path d="M35.288 154.881s8.652 46.942-18.723 54.371c0 0 11.59-20.506 0-50.225l18.723-4.146z" fill="url(#paint11_linear)"/>
    <path d="M329.826 235.584s6.89 37.38-14.909 43.296c0 0 9.23-16.329 0-39.995l14.909-3.301z" fill="url(#paint12_linear)"/>
    <path d="M335.202 207.218s1.706 33.058 21.368 33.671c0 0-11.115-11.971-8.071-33.882l-13.297.211z" fill="#A843BA"/>
    <path d="M311.755 298.332s3.783 32.885 23.444 32.26c0 0-11.845-11.248-10.187-33.308l-13.257 1.048zM297.595 431.692s-3.644 25.429 11.236 28.836c0 0-6.673-10.778-1.079-27.009l-10.157-1.827z" fill="#AB47BC"/>
    <path d="M300.418 424.499s-3.323 23.187 10.245 26.293c0 0-6.085-9.827-.984-24.626l-9.261-1.667z" fill="#AB47BC"/>
    <path d="M333.232 153.883s12.027 49.964-16.972 59.541c0 0 11.27-22.719-2.916-53.996l19.888-5.545z" fill="url(#paint13_linear)"/>
    <path d="M290.055 330.427s21.84 35.809 44.12 24.633c0 0-19.606-6.636-29.43-32.889l-14.69 8.256z" fill="url(#paint14_linear)"/>
    <path d="M125.999 113.55s29.888 54.012 63.343 38.965c0 0-25.263-7.825-38.076-47.038l-25.267 8.073z" fill="url(#paint15_linear)"/>
    <path d="M108.916 58.276S77.61 96.57 99.791 129.231c0 0 1.823-35.781 40.925-64.507l-31.8-6.448z" fill="url(#paint16_linear)"/>
    <path d="M264.437 81.105s28.588 36.213 74.114 18.898c0 0-26.899-2.54-55.831-36.683l-18.283 17.785z" fill="url(#paint17_linear)"/>
    <path d="M12.963 374.225s-10.796 58.573 23.362 67.844c0 0-14.462-25.588 0-62.671l-23.362-5.173z" fill="url(#paint18_linear)"/>
    <path d="M35.614 368.954s-8.597 46.644 18.605 54.027c0 0-11.517-20.376 0-49.907l-18.605-4.12z" fill="url(#paint19_linear)"/>
    <path d="M68.465 321.375s-18.732 34.214-39.914 24.801c0 0 17.924-7.017 25.909-31.831l14.005 7.03z" fill="url(#paint20_linear)"/>
    <path d="M325.89 422.217l28.046 2.28 3.924 10.699-32.077-9.743.107-3.236zM319.842 429.262l39.775 15.086.274 11.866-37.751-19.605-2.298-7.347z" fill="#AB47BC"/>
    <path d="M240.772 383.28l7.558 2.554-3.451 2.517-3.116-2.172-.991-2.899zM239.908 395.502l6.025 5.228.426-4.25-3.449-1.59-3.002.612z" fill="#FCE5FF"/>
    <path opacity=".6" d="M187.393 175.209c1.887-4.759 10.161-4.021 15.636-2.445 5.476 1.577 33.837 8.935 43.944 37.118 4.692 13.085-7.729 16.501-11.31 9.456-10.013-19.697-28.554-31.706-40.411-35.043-9.598-2.702-7.859-9.086-7.859-9.086zM290.055 467.107l-140.506 78.539-9.255.333-85.298-86.032a8.34 8.34 0 0 1 .051-11.795l88.922-88.162c7.451-7.388 19.481-7.337 26.869.115l119.217 107.002z" fill="#8E24AA"/>
    <path d="M322.03 502.931L215.518 608.535h-3.617L55.179 450.464a7 7 0 0 1 .043-9.899l89.873-89.106c7.452-7.388 19.482-7.337 26.87.115L322.03 502.931z" fill="#BCC6C9"/>
    <path d="M323.854 501.123L215.518 608.535 58.033 449.694a8.463 8.463 0 0 1 .051-11.968l96.49-95.666a8.22 8.22 0 0 1 11.624.05l157.656 159.013z" fill="#fff"/>
    <path d="M170.052 345.997L61.716 453.409l-4.713-4.753a7 7 0 0 1 .043-9.9l98.394-97.555a7.002 7.002 0 0 1 9.9.043l4.712 4.753z" fill="#CFD8DC"/>
    <path d="M64.438 444.329a2.762 2.762 0 1 0-.001-5.523 2.762 2.762 0 0 0 .001 5.523zM71.05 437.773a2.76 2.76 0 1 0 0-5.522 2.76 2.76 0 0 0 0 5.522zM77.662 431.218a2.761 2.761 0 1 0 0-5.522 2.761 2.761 0 0 0 0 5.522z" fill="#fff"/>
    <path d="M170.306 355.139l-99.655 98.805 35.399 35.704 99.655-98.805-35.399-35.704zM251.051 436.579l-99.655 98.805 8.187 8.257 99.655-98.804-8.187-8.258zM264.211 449.853l-99.655 98.805 8.187 8.257 99.656-98.804-8.188-8.258zM277.372 463.127l-99.655 98.805 8.187 8.257 99.655-98.804-8.187-8.258zM290.533 476.401l-99.656 98.804 8.188 8.258 99.655-98.805-8.187-8.257zM140.572 465.368l-29.549 29.296 35.399 35.704 29.548-29.296-35.398-35.704zM175.625 430.614l-29.548 29.296 35.399 35.703 29.548-29.296-35.399-35.703zM210.679 395.859l-29.548 29.296 35.398 35.704 29.549-29.296-35.399-35.704z" fill="#ECEFF1"/>
    <path opacity=".4" d="M122.014 388.925c4.879 9.533 13.983 16.768 25.335 18.824a35.42 35.42 0 0 0 24.058-4.164c3.454 2.393 7.505 4.128 12.318 5 15.275 2.767 30.109-3.094 39.508-14.107l-1.017-1.025c-9.433 10.016-23.583 15.207-38.131 12.572-4.813-.873-8.864-2.607-12.318-5a35.421 35.421 0 0 1-24.058 4.164c-11.352-2.056-20.457-9.291-25.335-18.825a37.786 37.786 0 0 1-9.547-.508 37.92 37.92 0 0 1-4.418-1.077l-2.022 2.006a38.067 38.067 0 0 0 15.627 2.14z" fill="#8E24AA"/>
    <path d="M86.19 364.286l-12.124 11.33 15.553-3.186-2.941 13.589 11.675-8.185-12.164-13.548z" fill="#fff"/>
    <path d="M263.305 344.964c3.927-21.68-10.464-42.439-32.145-46.367-12.811-2.32-25.298 1.758-34.183 9.955a26.14 26.14 0 0 0-3.534-.911c-15.798-2.862-33.422 6.88-40.634 23.092-5.271-9.734-14.745-17.079-26.485-19.205-20.525-3.719-40.178 9.906-43.897 30.431-3.718 20.526 9.907 40.179 30.432 43.897 3.224.584 6.425.739 9.547.508 4.879 9.534 13.984 16.768 25.335 18.825a35.423 35.423 0 0 0 24.059-4.164c3.454 2.393 7.504 4.127 12.318 4.999 21.198 3.841 41.55-8.935 47.698-29.041 15.602-3.102 28.481-15.418 31.489-32.019z" fill="url(#paint21_linear)"/>
    <path opacity=".4" d="M251.292 322.834c2.995-10.879-1.989-21.706-12.323-24.27-9.392-2.33-19.582 3.148-22.777 13.97-3.387 11.475 1.109 24.114 10.438 26.682 9.329 2.569 21.667-5.504 24.662-16.382z" fill="#8E24AA"/>
    <path d="M236.124 333.234c9.676 0 17.521-7.844 17.521-17.521 0-9.676-7.845-17.52-17.521-17.52-9.676 0-17.52 7.844-17.52 17.52 0 9.677 7.844 17.521 17.52 17.521z" fill="#FCE5FF"/>
    <path d="M236.124 329.989c-9.129 0-16.626-6.983-17.444-15.898-.05.534-.076 1.075-.076 1.622 0 9.677 7.844 17.521 17.52 17.521 9.676 0 17.521-7.844 17.521-17.521 0-.547-.027-1.088-.076-1.622-.819 8.915-8.316 15.898-17.445 15.898z" fill="#E1BEE7"/>
    <path d="M236.121 310.774a5.39 5.39 0 0 1 1.035-3.182 8.188 8.188 0 0 0-9.22 8.121 8.188 8.188 0 1 0 16.377 0c0-.096-.004-.191-.008-.286a5.416 5.416 0 0 1-8.184-4.653z" fill="#6A1B9A"/>
    <path d="M237.339 314.194a5.39 5.39 0 0 1-1.218-3.42c0-1.19.385-2.289 1.035-3.182a8.188 8.188 0 0 0-9.051 9.784 11.216 11.216 0 0 0 9.234-3.182z" fill="#8E24AA"/>
    <path opacity=".4" d="M224.466 281.972c10.712-38.906-4.935-74.593-39.991-84.571-33.284-9.474-72.484 6.102-89.617 51.444-15.124 40.027 3.966 80.308 37.33 89.493 33.365 9.186 81.567-17.46 92.278-56.366z" fill="#8E24AA"/>
    <path d="M166.143 319.167c34.606 0 62.659-28.053 62.659-62.659 0-34.606-28.053-62.66-62.659-62.66-34.606 0-62.66 28.054-62.66 62.66 0 34.606 28.054 62.659 62.66 62.659z" fill="#fff"/>
    <path d="M166.143 307.562c-32.649 0-59.461-24.972-62.39-56.857a63.605 63.605 0 0 0-.27 5.803c0 34.606 28.054 62.659 62.66 62.659 34.606 0 62.659-28.053 62.659-62.659 0-1.957-.094-3.892-.27-5.803-2.928 31.885-29.74 56.857-62.389 56.857z" fill="#FCE5FF"/>
    <path d="M166.132 238.842a19.27 19.27 0 0 1 3.7-11.379 29.543 29.543 0 0 0-3.689-.24c-16.174 0-29.285 13.111-29.285 29.285 0 16.173 13.111 29.284 29.285 29.284 16.173 0 29.285-13.111 29.285-29.284 0-.344-.015-.685-.026-1.026a19.273 19.273 0 0 1-9.905 2.725c-10.695 0-19.365-8.67-19.365-19.365z" fill="#6A1B9A"/>
    <path d="M170.487 251.074a19.282 19.282 0 0 1-4.355-12.232c0-4.254 1.375-8.185 3.7-11.379a29.354 29.354 0 0 0-3.689-.24c-16.174 0-29.285 13.111-29.285 29.285 0 2.038.209 4.026.606 5.947 1.541.179 3.109.274 4.699.274 11.046 0 21.051-4.451 28.324-11.655z" fill="#8E24AA"/>
    <path d="M82.508 514.123c-6.504 0-13.83-1.141-21.741-4.237-27.217-10.648-47.079-33.516-56.604-66.379C-.864 426.163.511 398.267 0 396.932l2.498.179c-.007.211-.66 21.29 6.495 45.098 9.503 31.622 27.535 52.825 53.596 63.021 26.923 10.532 46.74-3.943 46.936-4.09l2.996 4.002c-.655.491-12.275 8.98-30.013 8.981z" fill="url(#paint22_linear)"/>
    <path d="M106.528 506.166a2.498 2.498 0 0 1-1.964-.951c-2.158-2.731-3.054-5.654-2.663-8.686.703-5.447 5.453-9.081 5.656-9.234a2.499 2.499 0 0 1 3.015 3.989c-.071.055-3.301 2.584-3.716 5.909-.207 1.662.328 3.271 1.632 4.923a2.5 2.5 0 0 1-1.96 4.05z" fill="url(#paint23_linear)"/>
    <path d="M109.745 506.93a2.498 2.498 0 0 1-2.312-1.55c-1.326-3.219-1.384-6.276-.175-9.084 2.172-5.044 7.738-7.233 7.973-7.323a2.496 2.496 0 0 1 3.231 1.436 2.5 2.5 0 0 1-1.426 3.227c-.058.023-3.879 1.567-5.196 4.66-.655 1.541-.585 3.236.216 5.182a2.5 2.5 0 0 1-2.311 3.452z" fill="url(#paint24_linear)"/>
    <path d="M109.248 508.898a2.502 2.502 0 0 1-2.462-2.953c.632-3.424 2.238-6.025 4.777-7.73 4.557-3.062 10.424-1.884 10.669-1.834a2.5 2.5 0 0 1-1.011 4.897c-.101-.02-4.122-.777-6.891 1.102-1.386.94-2.245 2.402-2.626 4.471a2.5 2.5 0 0 1-2.456 2.047z" fill="url(#paint25_linear)"/>
    <path d="M313.461 374.013c-.583 14.323-6.171 26.401-13.729 38.732-15.108 24.647-39.646 25.068-39.891 25.069l.846 4.996c.819-.004 14.388-.246 28.532-10.953 5.185-3.925 10.337-9.256 14.777-16.5 6.656-10.861 7.542-12.538 9.932-23.464 0-3.96 0-14.418-.467-17.88z" fill="url(#paint26_linear)"/>
    <path d="M265.264 440.012c.59-.446.976-1.146.993-1.943.072-3.48-.978-6.352-3.12-8.533-3.848-3.919-9.829-3.949-10.082-3.948a2.499 2.499 0 0 0 .003 5c.09.001 4.191.068 6.529 2.468 1.168 1.2 1.714 2.806 1.67 4.91a2.501 2.501 0 0 0 4.007 2.046z" fill="url(#paint27_linear)"/>
    <path d="M263.161 442.563a2.498 2.498 0 0 0 .908-2.631c-.886-3.367-2.685-5.84-5.343-7.348-4.776-2.711-10.536-1.097-10.778-1.026a2.495 2.495 0 0 0-1.709 3.094 2.5 2.5 0 0 0 3.085 1.713c.06-.018 4.038-1.092 6.956.579 1.452.833 2.419 2.226 2.955 4.262a2.5 2.5 0 0 0 3.926 1.357z" fill="url(#paint28_linear)"/>
    <path d="M264.745 443.832a2.5 2.5 0 0 0 .181-3.84c-2.571-2.349-5.421-3.453-8.474-3.28-5.482.309-9.449 4.79-9.614 4.978a2.498 2.498 0 0 0 .24 3.527 2.502 2.502 0 0 0 3.522-.234c.068-.076 2.818-3.107 6.159-3.28 1.672-.087 3.24.56 4.792 1.98a2.501 2.501 0 0 0 3.194.149z" fill="url(#paint29_linear)"/>
    <defs>
        <linearGradient id="paint0_linear" x1="174.601" y1="216.841" x2="174.601" y2="-11.906" gradientUnits="userSpaceOnUse">
            <stop stop-color="#AB47BC"/>
            <stop offset="1" stop-color="#8E24AA"/>
        </linearGradient>
        <linearGradient id="paint1_linear" x1="81.511" y1="394.119" x2="109.925" y2="390.477" gradientUnits="userSpaceOnUse">
            <stop stop-color="#AB47BC"/>
            <stop offset="1" stop-color="#8E24AA"/>
        </linearGradient>
        <linearGradient id="paint2_linear" x1="238.802" y1="400.346" x2="209.117" y2="399.539" gradientUnits="userSpaceOnUse">
            <stop stop-color="#AB47BC"/>
            <stop offset="1" stop-color="#8E24AA"/>
        </linearGradient>
        <linearGradient id="paint3_linear" x1="347.283" y1="226.531" x2="347.283" y2="43.976" gradientUnits="userSpaceOnUse">
            <stop stop-color="#AA46BB"/>
            <stop offset="1" stop-color="#9A31B1"/>
        </linearGradient>
        <linearGradient id="paint4_linear" x1="325.146" y1="239.654" x2="325.146" y2="40.551" gradientUnits="userSpaceOnUse">
            <stop stop-color="#972FB0"/>
            <stop offset="1" stop-color="#962EAF"/>
        </linearGradient>
        <linearGradient id="paint5_linear" x1="202.651" y1="100.126" x2="226.125" y2="148.13" gradientUnits="userSpaceOnUse">
            <stop stop-color="#9932B1"/>
            <stop offset="1" stop-color="#8E24AA"/>
        </linearGradient>
        <linearGradient id="paint6_linear" x1="277.066" y1="140.262" x2="289.818" y2="192.155" gradientUnits="userSpaceOnUse">
            <stop stop-color="#9F39B5"/>
            <stop offset="1" stop-color="#8E24AA"/>
        </linearGradient>
        <linearGradient id="paint7_linear" x1="260.897" y1="134.915" x2="268.676" y2="166.57" gradientUnits="userSpaceOnUse">
            <stop stop-color="#9F39B5"/>
            <stop offset="1" stop-color="#8E24AA"/>
        </linearGradient>
        <linearGradient id="paint8_linear" x1="66.871" y1="130.263" x2="82.816" y2="191.821" gradientUnits="userSpaceOnUse">
            <stop offset=".011" stop-color="#972FB0" stop-opacity="0"/>
            <stop offset="1" stop-color="#8E24AA"/>
        </linearGradient>
        <linearGradient id="paint9_linear" x1="27.119" y1="87.571" x2="24.193" y2="138.298" gradientUnits="userSpaceOnUse">
            <stop stop-color="#982FB0"/>
            <stop offset="1" stop-color="#8E24AA"/>
        </linearGradient>
        <linearGradient id="paint10_linear" x1="49.118" y1="123.13" x2="51.38" y2="164.322" gradientUnits="userSpaceOnUse">
            <stop stop-color="#972EAF" stop-opacity="0"/>
            <stop offset="1" stop-color="#8E24AA"/>
        </linearGradient>
        <linearGradient id="paint11_linear" x1="25.048" y1="175.817" x2="12.269" y2="225.151" gradientUnits="userSpaceOnUse">
            <stop stop-color="#A13BB6"/>
            <stop offset="1" stop-color="#8E24AA"/>
        </linearGradient>
        <linearGradient id="paint12_linear" x1="321.672" y1="252.256" x2="311.496" y2="291.541" gradientUnits="userSpaceOnUse">
            <stop stop-color="#AB47BC"/>
            <stop offset="1" stop-color="#8E24AA"/>
        </linearGradient>
        <linearGradient id="paint13_linear" x1="324.257" y1="184.296" x2="322.959" y2="262.541" gradientUnits="userSpaceOnUse">
            <stop stop-color="#A33DB7"/>
            <stop offset="1" stop-color="#8E24AA"/>
        </linearGradient>
        <linearGradient id="paint14_linear" x1="309.028" y1="338.136" x2="346.304" y2="362.953" gradientUnits="userSpaceOnUse">
            <stop stop-color="#AB47BC"/>
            <stop offset="1" stop-color="#8E24AA"/>
        </linearGradient>
        <linearGradient id="paint15_linear" x1="161.54" y1="134.227" x2="183.05" y2="153.698" gradientUnits="userSpaceOnUse">
            <stop stop-color="#9D36B3"/>
            <stop offset="1" stop-color="#8E24AA"/>
        </linearGradient>
        <linearGradient id="paint16_linear" x1="113.857" y1="87.015" x2="93.686" y2="149.583" gradientUnits="userSpaceOnUse">
            <stop stop-color="#982FB0"/>
            <stop offset="1" stop-color="#8E24AA"/>
        </linearGradient>
        <linearGradient id="paint17_linear" x1="302.52" y1="92.323" x2="313.162" y2="110.671" gradientUnits="userSpaceOnUse">
            <stop stop-color="#9831B0"/>
            <stop offset="1" stop-color="#8E24AA"/>
        </linearGradient>
        <linearGradient id="paint18_linear" x1="21.619" y1="384.067" x2="39.233" y2="453.968" gradientUnits="userSpaceOnUse">
            <stop stop-color="#AB47BC"/>
            <stop offset="1" stop-color="#8E24AA"/>
        </linearGradient>
        <linearGradient id="paint19_linear" x1="42.984" y1="378.683" x2="60.599" y2="448.585" gradientUnits="userSpaceOnUse">
            <stop stop-color="#AB47BC"/>
            <stop offset="1" stop-color="#8E24AA"/>
        </linearGradient>
        <linearGradient id="paint20_linear" x1="52.966" y1="328.045" x2="19.417" y2="352.72" gradientUnits="userSpaceOnUse">
            <stop stop-color="#AB47BC"/>
            <stop offset="1" stop-color="#8E24AA"/>
        </linearGradient>
        <linearGradient id="paint21_linear" x1="172.682" y1="334.83" x2="174.354" y2="404.964" gradientUnits="userSpaceOnUse">
            <stop stop-color="#AB47BC"/>
            <stop offset="1" stop-color="#D247DD"/>
        </linearGradient>
        <linearGradient id="paint22_linear" x1="-3.132" y1="422.158" x2="75.315" y2="500.935" gradientUnits="userSpaceOnUse">
            <stop stop-color="#AB47BC"/>
            <stop offset="1" stop-color="#8E24AA"/>
        </linearGradient>
        <linearGradient id="paint23_linear" x1="14.284" y1="402.577" x2="93.617" y2="482.243" gradientUnits="userSpaceOnUse">
            <stop stop-color="#AB47BC"/>
            <stop offset="1" stop-color="#8E24AA"/>
        </linearGradient>
        <linearGradient id="paint24_linear" x1="16.172" y1="400.696" x2="95.505" y2="480.363" gradientUnits="userSpaceOnUse">
            <stop stop-color="#AB47BC"/>
            <stop offset="1" stop-color="#8E24AA"/>
        </linearGradient>
        <linearGradient id="paint25_linear" x1="15.078" y1="401.785" x2="94.412" y2="481.452" gradientUnits="userSpaceOnUse">
            <stop stop-color="#AB47BC"/>
            <stop offset="1" stop-color="#8E24AA"/>
        </linearGradient>
        <linearGradient id="paint26_linear" x1="218.604" y1="415.855" x2="221.503" y2="415.542" gradientUnits="userSpaceOnUse">
            <stop stop-color="#AB47BC"/>
            <stop offset="1" stop-color="#8F23AA"/>
        </linearGradient>
        <linearGradient id="paint27_linear" x1="220.899" y1="437.104" x2="223.798" y2="436.791" gradientUnits="userSpaceOnUse">
            <stop stop-color="#AB47BC"/>
            <stop offset="1" stop-color="#8F23AA"/>
        </linearGradient>
        <linearGradient id="paint28_linear" x1="221.304" y1="440.849" x2="224.202" y2="440.536" gradientUnits="userSpaceOnUse">
            <stop stop-color="#AB47BC"/>
            <stop offset="1" stop-color="#8F23AA"/>
        </linearGradient>
        <linearGradient id="paint29_linear" x1="221.713" y1="444.643" x2="224.612" y2="444.33" gradientUnits="userSpaceOnUse">
            <stop stop-color="#AB47BC"/>
            <stop offset="1" stop-color="#8F23AA"/>
        </linearGradient>
    </defs>
</svg>