<svg version="1.2" xmlns="http://www.w3.org/2000/svg" viewBox="0 0 960 650" width="960" height="650">
	<title>2950238-ai</title>
	<defs>
		<linearGradient id="g1" x2="1" gradientUnits="userSpaceOnUse" gradientTransform="matrix(-267.614,-702.127,1217.536,-464.06,464.612,1112.137)">
			<stop offset="0" stop-color="#64397b"/>
			<stop offset="1" stop-color="#a542ea"/>
		</linearGradient>
		<linearGradient id="g2" x2="1" gradientUnits="userSpaceOnUse" gradientTransform="matrix(0,286.376,-87.362,0,1379.646,235.433)">
			<stop offset="0" stop-color="#64397b" stop-opacity="1"/>
			<stop offset="1" stop-color="#a542ea" stop-opacity="0"/>
		</linearGradient>
		<linearGradient id="g3" x2="1" gradientUnits="userSpaceOnUse" gradientTransform="matrix(0,210.238,-46.13,0,1397.309,52)">
			<stop offset="0" stop-color="#64397b" stop-opacity="1"/>
			<stop offset="1" stop-color="#a542ea" stop-opacity="0"/>
		</linearGradient>
		<linearGradient id="g4" x2="1" gradientUnits="userSpaceOnUse" gradientTransform="matrix(0,206,-141.148,0,975.658,446.96)">
			<stop offset="0" stop-color="#64397b" stop-opacity="1"/>
			<stop offset="1" stop-color="#a542ea" stop-opacity="0"/>
		</linearGradient>
		<linearGradient id="g5" x2="1" gradientUnits="userSpaceOnUse" gradientTransform="matrix(0,116.311,-79.695,0,378.773,415.692)">
			<stop offset="0" stop-color="#64397b" stop-opacity="1"/>
			<stop offset="1" stop-color="#a542ea" stop-opacity="0"/>
		</linearGradient>
		<linearGradient id="g6" x2="1" gradientUnits="userSpaceOnUse" gradientTransform="matrix(0,92.954,-46.131,0,478.308,480.5)">
			<stop offset="0" stop-color="#64397b" stop-opacity="1"/>
			<stop offset="1" stop-color="#a542ea" stop-opacity="0"/>
		</linearGradient>
		<linearGradient id="g7" x2="1" gradientUnits="userSpaceOnUse" gradientTransform="matrix(-153.069,-134.578,128.548,-146.211,617.783,660.024)">
			<stop offset="0" stop-color="#14121d"/>
			<stop offset="1" stop-color="#282832"/>
		</linearGradient>
		<linearGradient id="g8" x2="1" gradientUnits="userSpaceOnUse" gradientTransform="matrix(-270.004,-330.657,384.312,-313.817,398.917,747.428)">
			<stop offset="0" stop-color="#64397b"/>
			<stop offset="1" stop-color="#a542ea"/>
		</linearGradient>
		<linearGradient id="g9" x2="1" gradientUnits="userSpaceOnUse" gradientTransform="matrix(-53.442,-128.261,182.581,-76.076,432.454,369.841)">
			<stop offset="0" stop-color="#64397b"/>
			<stop offset="1" stop-color="#a542ea"/>
		</linearGradient>
		<linearGradient id="g10" x2="1" gradientUnits="userSpaceOnUse" gradientTransform="matrix(-110.102,-96.994,236.27,-268.199,459.774,416.111)">
			<stop offset="0" stop-color="#de7b8a"/>
			<stop offset="1" stop-color="#f1babd"/>
		</linearGradient>
		<linearGradient id="g11" x2="1" gradientUnits="userSpaceOnUse" gradientTransform="matrix(-259.923,-201.997,214.375,-275.85,655.524,745.247)">
			<stop offset="0" stop-color="#9da5aa"/>
			<stop offset="1" stop-color="#d5dde3"/>
		</linearGradient>
		<linearGradient id="g12" x2="1" gradientUnits="userSpaceOnUse" gradientTransform="matrix(-110.129,-147.734,183.774,-136.995,692.542,315.152)">
			<stop offset="0" stop-color="#9da5aa"/>
			<stop offset="1" stop-color="#d5dde3"/>
		</linearGradient>
		<linearGradient id="g13" x2="1" gradientUnits="userSpaceOnUse" gradientTransform="matrix(34.864,90.646,-102.631,39.473,670.124,211.871)">
			<stop offset="0" stop-color="#64397b"/>
			<stop offset="1" stop-color="#a542ea"/>
		</linearGradient>
		<linearGradient id="g14" x2="1" gradientUnits="userSpaceOnUse" gradientTransform="matrix(-58.435,-144.549,176.647,-71.411,564.757,443.758)">
			<stop offset="0" stop-color="#9da5aa"/>
			<stop offset="1" stop-color="#d5dde3"/>
		</linearGradient>
		<linearGradient id="g15" x2="1" gradientUnits="userSpaceOnUse" gradientTransform="matrix(-9.256,91.53,-45.797,-4.631,810.182,148.559)">
			<stop offset="0" stop-color="#de7b8a"/>
			<stop offset="1" stop-color="#f1babd"/>
		</linearGradient>
		<linearGradient id="g16" x2="1" gradientUnits="userSpaceOnUse" gradientTransform="matrix(-15.011,83.715,-66.105,-11.853,714.538,177.798)">
			<stop offset="0" stop-color="#de7b8a"/>
			<stop offset="1" stop-color="#f1babd"/>
		</linearGradient>
		<linearGradient id="g17" x2="1" gradientUnits="userSpaceOnUse" gradientTransform="matrix(-108.592,-161.38,251.106,-168.969,402.503,450.295)">
			<stop offset="0" stop-color="#64397b"/>
			<stop offset="1" stop-color="#a542ea"/>
		</linearGradient>
		<linearGradient id="g18" x2="1" gradientUnits="userSpaceOnUse" gradientTransform="matrix(-91.727,-97.176,95.733,-90.365,628.249,311.219)">
			<stop offset="0" stop-color="#de7b8a"/>
			<stop offset="1" stop-color="#f1babd"/>
		</linearGradient>
		<linearGradient id="g19" x2="1" gradientUnits="userSpaceOnUse" gradientTransform="matrix(68.501,55.607,-32.904,40.533,671.344,39.287)">
			<stop offset="0" stop-color="#de7b8a"/>
			<stop offset="1" stop-color="#f1babd"/>
		</linearGradient>
		<linearGradient id="g20" x2="1" gradientUnits="userSpaceOnUse" gradientTransform="matrix(-120.289,-87.315,89.896,-123.845,664.076,139.056)">
			<stop offset="0" stop-color="#453a62"/>
			<stop offset="1" stop-color="#594d7d"/>
		</linearGradient>
		<linearGradient id="g21" x2="1" gradientUnits="userSpaceOnUse" gradientTransform="matrix(100.691,81.737,-126.009,155.228,640.591,35.088)">
			<stop offset="0" stop-color="#de7b8a"/>
			<stop offset="1" stop-color="#f1babd"/>
		</linearGradient>
		<linearGradient id="g22" x2="1" gradientUnits="userSpaceOnUse" gradientTransform="matrix(-238.655,-353.209,352.112,-237.913,736.359,719.131)">
			<stop offset="0" stop-color="#64397b"/>
			<stop offset="1" stop-color="#a542ea"/>
		</linearGradient>
		<linearGradient id="g23" x2="1" gradientUnits="userSpaceOnUse" gradientTransform="matrix(-82.77,-113.426,98.969,-72.221,703.465,462.265)">
			<stop offset="0" stop-color="#64397b"/>
			<stop offset="1" stop-color="#a542ea"/>
		</linearGradient>
		<linearGradient id="g24" x2="1" gradientUnits="userSpaceOnUse" gradientTransform="matrix(76.869,81.2,-34.086,32.268,635.566,289.745)">
			<stop offset="0" stop-color="#de7b8a"/>
			<stop offset="1" stop-color="#f1babd"/>
		</linearGradient>
		<linearGradient id="g25" x2="1" gradientUnits="userSpaceOnUse" gradientTransform="matrix(-58.294,-49.09,23.394,-27.78,585.649,443.001)">
			<stop offset="0" stop-color="#de7b8a"/>
			<stop offset="1" stop-color="#f1babd"/>
		</linearGradient>
		<linearGradient id="g26" x2="1" gradientUnits="userSpaceOnUse" gradientTransform="matrix(-147.777,-132.893,113.956,-126.719,531.764,504.647)">
			<stop offset="0" stop-color="#14121d"/>
			<stop offset="1" stop-color="#282832"/>
		</linearGradient>
		<linearGradient id="g27" x2="1" gradientUnits="userSpaceOnUse" gradientTransform="matrix(-99.006,-129.55,83.558,-63.857,562.46,556.354)">
			<stop offset="0" stop-color="#14121d"/>
			<stop offset="1" stop-color="#282832"/>
		</linearGradient>
		<linearGradient id="g28" x2="1" gradientUnits="userSpaceOnUse" gradientTransform="matrix(-97.175,-76.325,95.659,-121.791,673.07,483.217)">
			<stop offset="0" stop-color="#64397b"/>
			<stop offset="1" stop-color="#a542ea"/>
		</linearGradient>
		<linearGradient id="g29" x2="1" gradientUnits="userSpaceOnUse" gradientTransform="matrix(-100.332,-87.592,107.366,-122.982,517.256,505.485)">
			<stop offset="0" stop-color="#de7b8a"/>
			<stop offset="1" stop-color="#f1babd"/>
		</linearGradient>
		<linearGradient id="g30" x2="1" gradientUnits="userSpaceOnUse" gradientTransform="matrix(-119.998,-113.844,210.99,-222.395,460.837,454.423)">
			<stop offset="0" stop-color="#de7b8a"/>
			<stop offset="1" stop-color="#f1babd"/>
		</linearGradient>
		<linearGradient id="g31" x2="1" gradientUnits="userSpaceOnUse" gradientTransform="matrix(-71.197,-76.537,66.364,-61.734,596.625,288.554)">
			<stop offset="0" stop-color="#64397b"/>
			<stop offset="1" stop-color="#a542ea"/>
		</linearGradient>
		<linearGradient id="g32" x2="1" gradientUnits="userSpaceOnUse" gradientTransform="matrix(-28,-45.333,7.533,-4.652,557.863,253.653)">
			<stop offset="0" stop-color="#64397b"/>
			<stop offset="1" stop-color="#a542ea"/>
		</linearGradient>
		<linearGradient id="g33" x2="1" gradientUnits="userSpaceOnUse" gradientTransform="matrix(-71.929,-131.458,360.608,-197.313,594.617,75.28)">
			<stop offset="0" stop-color="#453a62"/>
			<stop offset="1" stop-color="#594d7d"/>
		</linearGradient>
		<linearGradient id="g34" x2="1" gradientUnits="userSpaceOnUse" gradientTransform="matrix(-75.284,-187.193,174.636,-70.234,575.08,765.323)">
			<stop offset="0" stop-color="#14121d"/>
			<stop offset="1" stop-color="#282832"/>
		</linearGradient>
	</defs>
	<style>
		.s0 { fill: url(#g1) } 
		.s1 { fill: url(#g2) } 
		.s2 { fill: url(#g3) } 
		.s3 { fill: url(#g4) } 
		.s4 { fill: #a542ea } 
		.s5 { fill: url(#g5) } 
		.s6 { fill: url(#g6) } 
		.s7 { fill: #ffffff } 
		.s8 { fill: url(#g7) } 
		.s9 { fill: url(#g8) } 
		.s10 { fill: url(#g9) } 
		.s11 { fill: url(#g10) } 
		.s12 { fill: url(#g11) } 
		.s13 { fill: url(#g12) } 
		.s14 { fill: url(#g13) } 
		.s15 { fill: url(#g14) } 
		.s16 { fill: url(#g15) } 
		.s17 { fill: url(#g16) } 
		.s18 { fill: url(#g17) } 
		.s19 { fill: url(#g18) } 
		.s20 { fill: url(#g19) } 
		.s21 { fill: #453a62 } 
		.s22 { fill: #594d7d } 
		.s23 { fill: url(#g20) } 
		.s24 { fill: url(#g21) } 
		.s25 { fill: #de7b8a } 
		.s26 { fill: #64397b } 
		.s27 { fill: url(#g22) } 
		.s28 { fill: url(#g23) } 
		.s29 { fill: #f1babd } 
		.s30 { fill: url(#g24) } 
		.s31 { fill: url(#g25) } 
		.s32 { fill: url(#g26) } 
		.s33 { fill: url(#g27) } 
		.s34 { fill: url(#g28) } 
		.s35 { fill: url(#g29) } 
		.s36 { opacity: 1;fill: url(#g30) } 
		.s37 { fill: url(#g31) } 
		.s38 { fill: url(#g32) } 
		.s39 { fill: url(#g33) } 
		.s40 { fill: url(#g34) } 
	</style>
	<g id="BACKGROUND">
	</g>
	<g id="OBJECTS">
		<g id="&lt;Group&gt;">
			<g id="&lt;Group&gt;">
				<g id="&lt;Group&gt;">
				</g>
			</g>
		</g>
		<g id="&lt;Group&gt;">
			<path id="&lt;Path&gt;" class="s0" d="m960 650v-572.9c-115.2-73.9-274.3-30.2-367.8 89.2-131.8 168.3-192.2 79.7-350.2 163.7-110.6 58.8-168.3 225.3-236.1 320z"/>
			<path id="&lt;Path&gt;" class="s1" d="m887.5 160.8l-45.8 61.9h22.9v238.4h22.9 22.9v-238.4h22.9z"/>
			<path id="&lt;Path&gt;" class="s2" d="m818 69.8l-27.9 37.6h14v216.6h13.9 14v-216.6h13.9z"/>
			<path id="&lt;Path&gt;" class="s3" d="m818 434l-74 100h37v116h37 37v-116h37z"/>
			<g id="&lt;Group&gt;">
				<g id="&lt;Group&gt;">
					<g id="&lt;Group&gt;">
						<g id="&lt;Group&gt;">
							<path id="&lt;Compound Path&gt;" fill-rule="evenodd" class="s4" d="m444.9 189.7h-44.5c-4.3 0-8.1-3.1-8.8-7.4l-2.9-16.6c-0.6-3.3-2.1-6.2-4.3-8.6-10.2-10.8-15.2-25.6-13.8-40.5 2.3-25 23.1-45.1 48.2-46.6 14.5-0.9 28.2 4 38.8 13.9 10.4 9.7 16.3 23.5 16.3 37.7 0 12.8-4.7 25.1-13.2 34.6-1.9 2.2-3.3 5-3.8 8.2l-3.2 17.9c-0.7 4.3-4.5 7.4-8.8 7.4zm-22.8-113.8q-1.4 0-2.9 0c-22.3 1.4-40.6 19.2-42.7 41.3-1.2 13.2 3.2 26.2 12.2 35.8 3.1 3.2 5.1 7.2 5.9 11.6l2.9 16.6c0.2 1.5 1.5 2.5 2.9 2.5h44.5c1.4 0 2.7-1 2.9-2.5l3.2-17.8c0.7-4.3 2.6-8.2 5.3-11.2 7.5-8.4 11.6-19.3 11.6-30.6 0-12.7-5.1-24.6-14.4-33.3-8.6-8.1-19.6-12.4-31.4-12.4z"/>
						</g>
						<g id="&lt;Group&gt;">
							<path id="&lt;Compound Path&gt;" fill-rule="evenodd" class="s4" d="m438.1 219.8h-30.9c-5 0-9-4.1-9-9v-24.1c0-1.7 1.3-3 3-3h42.9c1.7 0 3 1.3 3 3v24.1c0 4.9-4 9-9 9zm-33.9-30.1v21.1c0 1.6 1.3 3 3 3h30.9c1.7 0 3-1.4 3-3v-21.1z"/>
						</g>
						<g id="&lt;Group&gt;">
							<path id="&lt;Compound Path&gt;" fill-rule="evenodd" class="s4" d="m422.1 232.4c-8.8 0-15.9-6.6-16.7-15.4-0.1-0.8 0.2-1.6 0.8-2.3 0.5-0.6 1.3-0.9 2.2-0.9h27.5c0.8 0 1.6 0.3 2.2 0.9 0.5 0.7 0.8 1.5 0.8 2.3-0.8 8.8-8 15.4-16.8 15.4zm-9.9-12.6c1.6 3.9 5.4 6.6 9.9 6.6 4.5 0 8.3-2.7 10-6.6z"/>
						</g>
					</g>
					<g id="&lt;Group&gt;">
						<path id="&lt;Path&gt;" class="s4" d="m413.8 177.8c-1.4 0-2.6-1-2.9-2.4l-8.8-41.7c-0.4-1.7 0.7-3.3 2.3-3.6 1.6-0.3 3.2 0.7 3.5 2.3l8.9 41.8c0.3 1.6-0.7 3.2-2.4 3.5q-0.3 0.1-0.6 0.1z"/>
					</g>
					<g id="&lt;Group&gt;">
						<path id="&lt;Path&gt;" class="s4" d="m430.4 177.8q-0.3 0-0.6-0.1c-1.6-0.3-2.7-1.9-2.3-3.5l8.8-41.8c0.3-1.6 1.9-2.6 3.6-2.3 1.6 0.3 2.6 1.9 2.3 3.6l-8.8 41.7c-0.3 1.4-1.6 2.4-3 2.4z"/>
					</g>
				</g>
				<g id="&lt;Group&gt;">
					<g id="&lt;Group&gt;">
						<path id="&lt;Path&gt;" class="s4" d="m444.1 199.7h-42.9c-1.7 0-3-1.3-3-3 0-1.6 1.3-3 3-3h42.9c1.7 0 3 1.4 3 3 0 1.7-1.3 3-3 3z"/>
					</g>
					<g id="&lt;Group&gt;">
						<path id="&lt;Path&gt;" class="s4" d="m444.1 209.8l-42.9-0.1c-1.7 0-3-1.3-3-3 0-1.6 1.3-3 3-3h42.9c1.7 0 3 1.4 3 3 0 1.7-1.3 3-3 3z"/>
					</g>
				</g>
			</g>
			<path id="&lt;Path&gt;" class="s5" d="m221.2 296.7l-74 100h37v116h37 37v-116h37z"/>
			<path id="&lt;Path&gt;" class="s6" d="m365.1 464.4l-27.9 37.6h13.9v74.7h27.9v-74.7h14z"/>
			<g id="&lt;Group&gt;">
				<g id="&lt;Group&gt;">
					<path id="&lt;Compound Path&gt;" fill-rule="evenodd" class="s7" d="m292.2 477.1c-35.9 0-65-29.1-65-65 0-35.8 29.1-65 65-65 35.8 0 65 29.2 65 65 0 35.9-29.2 65-65 65zm0-124c-32.5 0-59 26.5-59 59 0 32.6 26.5 59 59 59 32.5 0 59-26.4 59-59 0-32.5-26.5-59-59-59z"/>
				</g>
				<g id="&lt;Group&gt;">
					<path id="&lt;Path&gt;" class="s7" d="m292.2 465c-1.7 0-3-1.3-3-3 0-1.7 1.3-3 3-3 25.8 0 46.8-21 46.8-46.9 0-1.6 1.4-3 3-3 1.7 0 3 1.4 3 3 0 29.2-23.7 52.9-52.8 52.9z"/>
				</g>
				<g id="&lt;Group&gt;">
					<path id="&lt;Path&gt;" class="s7" d="m242.3 415.1c-1.6 0-3-1.3-3-3 0-29.1 23.7-52.8 52.9-52.8 1.6 0 3 1.3 3 3 0 1.6-1.4 3-3 3-25.8 0-46.9 21-46.9 46.8 0 1.7-1.3 3-3 3z"/>
				</g>
				<g id="&lt;Group&gt;">
					<g id="&lt;Group&gt;">
						<path id="&lt;Compound Path&gt;" fill-rule="evenodd" class="s7" d="m289.1 437.7q-4.3-0.4-7.9-2.1-3.5-1.8-6.1-4.5l1.9-2.9q0.2-0.4 0.7-0.7 0.5-0.2 1-0.2 0.7 0 1.5 0.7 0.9 0.7 2.1 1.5 1.3 0.9 3 1.7 1.8 0.9 4.2 1.1l1.3-19q-2.5-0.7-4.9-1.7-2.4-1-4.3-2.5-2-1.5-3.1-3.8-1.2-2.3-1.2-5.8 0-2.7 1-5.2 1.1-2.5 3-4.4 2-1.9 4.8-3.2 2.9-1.2 6.6-1.2l0.4-5.2q0.1-0.7 0.5-1.3 0.5-0.5 1.3-0.5h2.3l-0.5 7.1q3.8 0.5 6.5 1.9 2.8 1.5 4.9 3.6l-1.5 2.3q-0.8 1.1-1.7 1.1-0.5 0-1.2-0.4-0.8-0.5-1.8-1.1-1-0.6-2.4-1.2-1.4-0.5-3.1-0.8l-1.2 17.4q2.6 0.8 5.1 1.7 2.5 0.9 4.5 2.4 2 1.5 3.3 3.7 1.2 2.2 1.2 5.5 0 3.2-1.1 6.1-1.1 2.8-3.1 5-2.1 2.2-5.1 3.5-3 1.4-6.8 1.4l-0.4 6.4q-0.1 0.7-0.6 1.2-0.5 0.5-1.2 0.5h-2.4zm-5.8-38.8q0 1.7 0.6 3 0.6 1.2 1.7 2.2 1.1 1 2.5 1.7 1.4 0.7 3.1 1.3l1.1-16.2q-2.3 0.2-4 0.9-1.7 0.8-2.8 1.8-1.1 1.1-1.7 2.4-0.5 1.4-0.5 2.9zm19.9 23.8q0-1.8-0.7-3.1-0.6-1.3-1.8-2.2-1.1-1-2.7-1.7-1.5-0.6-3.3-1.2l-1.2 17.8q2.3-0.2 4.2-1 1.8-0.8 3-2 1.2-1.3 1.9-3 0.6-1.6 0.6-3.6z"/>
					</g>
				</g>
			</g>
			<g id="&lt;Group&gt;">
				<g id="&lt;Group&gt;">
					<path id="&lt;Path&gt;" class="s7" d="m769.5 575.5c-1.7 0-3-1.4-3-3v-52.8h-23.6v52.8c0 1.6-1.3 3-3 3-1.6 0-3-1.4-3-3v-55.8c0-1.6 1.4-3 3-3h29.6c1.7 0 3 1.4 3 3v55.8c0 1.6-1.3 3-3 3z"/>
				</g>
				<g id="&lt;Group&gt;">
					<path id="&lt;Path&gt;" class="s7" d="m815.7 575.5c-1.6 0-3-1.4-3-3v-102.7h-23.5v102.7c0 1.6-1.4 3-3 3-1.7 0-3-1.4-3-3v-105.7c0-1.7 1.3-3 3-3h29.5c1.7 0 3 1.3 3 3v105.7c0 1.6-1.3 3-3 3z"/>
				</g>
				<g id="&lt;Group&gt;">
					<path id="&lt;Path&gt;" class="s7" d="m861.9 575.5c-1.6 0-3-1.4-3-3v-152.7h-23.5v152.7c0 1.6-1.4 3-3 3-1.7 0-3-1.4-3-3v-155.7c0-1.7 1.3-3 3-3h29.5c1.7 0 3 1.3 3 3v155.7c0 1.6-1.3 3-3 3z"/>
				</g>
				<g id="&lt;Group&gt;">
					<path id="&lt;Path&gt;" class="s7" d="m879.2 576.3h-156.5c-1.7 0-3-1.4-3-3 0-1.7 1.3-3 3-3h156.5c1.7 0 3 1.3 3 3 0 1.6-1.3 3-3 3z"/>
				</g>
			</g>
			<g id="&lt;Group&gt;">
				<g id="&lt;Group&gt;">
					<g id="&lt;Group&gt;">
						<path id="&lt;Path&gt;" class="s7" d="m769.1 260.7h-43c-6.4 0-11.6-5.2-11.6-11.5v-87.2c0-0.8 0.3-1.5 0.9-2.1l38.5-38.5c0.6-0.6 1.3-0.9 2.1-0.9h56.1c6.3 0 11.5 5.2 11.5 11.6v69.6c0 1.7-1.3 3-3 3-1.6 0-3-1.3-3-3v-69.6c0-3.1-2.5-5.6-5.5-5.6h-54.8l-36.8 36.8v85.9c0 3 2.5 5.5 5.6 5.5h43c1.6 0 3 1.4 3 3 0 1.7-1.4 3-3 3z"/>
					</g>
					<g id="&lt;Group&gt;">
						<path id="&lt;Compound Path&gt;" fill-rule="evenodd" class="s7" d="m747.4 165h-29.9c-1.2 0-2.3-0.7-2.8-1.8-0.4-1.2-0.2-2.4 0.7-3.3l38.5-38.5c0.9-0.9 2.1-1.2 3.3-0.7 1.1 0.5 1.8 1.6 1.8 2.8v29.9c0 6.4-5.2 11.6-11.6 11.6zm-22.7-6h22.7c3.1 0 5.6-2.5 5.6-5.6v-22.7z"/>
					</g>
				</g>
				<g id="&lt;Group&gt;">
					<g id="&lt;Group&gt;">
						<path id="&lt;Compound Path&gt;" fill-rule="evenodd" class="s7" d="m808.3 275.2c-18.9 0-34.2-15.4-34.2-34.2 0-18.9 15.3-34.3 34.2-34.3 18.9 0 34.2 15.4 34.2 34.3 0 18.8-15.3 34.2-34.2 34.2zm0-62.5c-15.6 0-28.2 12.7-28.2 28.3 0 15.5 12.6 28.2 28.2 28.2 15.5 0 28.2-12.7 28.2-28.2 0-15.6-12.7-28.3-28.2-28.3z"/>
					</g>
					<g id="&lt;Group&gt;">
						<path id="&lt;Path&gt;" class="s7" d="m847.3 283c-0.7 0-1.5-0.3-2.1-0.9l-17-16.9c-1.1-1.2-1.1-3.1 0-4.3 1.2-1.2 3.1-1.2 4.3 0l16.9 17c1.2 1.1 1.2 3 0 4.2-0.5 0.6-1.3 0.9-2.1 0.9z"/>
					</g>
				</g>
			</g>
			<g id="&lt;Group&gt;">
				<path id="&lt;Path&gt;" class="s8" d="m510.3 540.2l-7.1 109.8h251.7c0 0 7.8-72.7-6-109.8z"/>
				<g id="&lt;Group&gt;">
					<path id="&lt;Path&gt;" class="s9" d="m402.3 401.7c32.1-103.3 94-172 94-172 5.5 46.1 11.2 131.1 14.1 176.8 2.1 3.4 4.2 7.4 6.1 12.2 0 0 8.8 21.4-13.9 47-22.8 25.5-69.8 27.1-90.6 4.8-21-22.4-14.3-54-9.7-68.8z"/>
					<path id="&lt;Path&gt;" class="s10" d="m510.3 401.7c0 0-28.3-13.9-52.4-9.1-24.2 4.9-38.7 21.5-41.6 19.3-2.9-2.1 9.1-22.8 24.6-26.9 15.5-4-2.2-13.5-12.3-12.8-10.1 0.7 3.1-14.5 34.5-8 31.3 6.5 47.2 37.5 47.2 37.5z"/>
					<path id="&lt;Path&gt;" class="s11" d="m447 398.6c0 0 3-13 9.4-17.6 6.5-4.6 21.4-21.8 25.4-20 3.9 1.8 4.3 15.4-3.3 20-7.6 4.6-12.7 20.7-12.7 20.7z"/>
					<path id="&lt;Path&gt;" class="s12" d="m510.3 540.2c0 0 2.4-104.1-1.4-160.1-3.9-55.9-12.6-150.4-12.6-150.4 50.2-21.2 93.6-33.2 93.6-33.2h79c0 0 88.7 16.2 102.2 22.3 0 0-21.6 164.8-22.1 171.8-4.8 64.1-0.1 149.6-0.1 149.6 0 0-65.5 10.6-135.4 10.6-69.9 0-103.2-10.6-103.2-10.6z"/>
					<path id="&lt;Path&gt;" class="s13" d="m611.5 196.5h57.4c0 0 41.6 7.6 72.1 14.4-3.8 8.8-12.4 21.6-31.1 29-30.4 12-36.4 21.6-36.4 21.6 0 0-37.2 21.7-57.8-21.6-6.2-13.2-6.6-28.5-4.2-43.4z"/>
					<path id="&lt;Path&gt;" class="s14" d="m589.9 196.5h79c0 0 5.6 1 14.1 2.6 0 0-27.5 52-66.6 76.5 0 0-18-20.9-33.6-77.1 4.5-1.3 7.1-2 7.1-2z"/>
					<path id="&lt;Path&gt;" class="s15" d="m613.2 486.1c-62.4-5.9-95-41.4-95-41.4l71.7-55.3 151.1 30.5c0 0 2.6 1.9 6.7 5.1-0.9 36-0.2 72.7 0.5 94.7-53.2 6.7-79.9-28.4-135-33.6z"/>
					<path id="&lt;Path&gt;" class="s16" d="m652.3 84.8l16.6 111.7-47.9 51.3-30.1-49.7 3.8-89.8z"/>
					<path id="&lt;Path&gt;" class="s17" d="m591.8 176.9l2.9-68.7 57.6-23.4 16.6 111.7-3.5-3.2c-7.4-6.7-18.1-7.8-27.1-3.5-17.5 8.4-38.4-0.6-46.5-12.9z"/>
					<path id="&lt;Path&gt;" class="s18" d="m463.1 477.1c3.1-8.8-14-11.2-17.8-32.4-3.8-21.2 4.2-32.6 4.2-32.6l60.1-17.6c0.3 4.2 0.5 8.2 0.8 12 2.1 3.4 4.2 7.4 6.1 12.2 0 0 8.8 21.4-13.9 47-18.8 21-54 25.8-77.5 14.3 18.1 5.8 36 2.7 38-2.9z"/>
					<path id="&lt;Path&gt;" class="s19" d="m664.1 84.1c-5.4-52.1-76-53.5-97.4-26.9-27.9 34.7 3.9 130.7 38.6 130 31.6-0.6 65.5-38.5 58.8-103.1z"/>
					<path id="&lt;Path&gt;" class="s20" d="m566.7 57.2c21.4-26.6 92-25.2 97.4 26.9 3 28.9-2.1 52.4-11.5 69.7-3.3-37.4-5.8-64.3-23.2-66.3-18.9-2.2-58.1 13-70.8-13.5 1.7-6.4 4.4-12.2 8.1-16.8z"/>
					<g id="&lt;Group&gt;">
						<path id="&lt;Path&gt;" class="s21" d="m657.3 45.6c0 0 19.5 27.8 4.5 83.8l-28.1-64.5z"/>
					</g>
					<path id="&lt;Path&gt;" class="s22" d="m566.7 57.2l-10.5 43.3c0 0-12.6-35.6 10.5-43.3z"/>
					<path id="&lt;Path&gt;" class="s23" d="m556 40.2c-5.1 7.3-9.5 17 2.1 35.8 11.5 18.8 64.5 7.2 86.7-6.3 22.2-13.5 28.9-35.6 15.4-35.6-13.5-0.1-76.3-34.1-104.2 6.1z"/>
					<path id="&lt;Path&gt;" class="s24" d="m650.6 113.7c0 0 12-35.9 20.7-18.5 8.7 17.4-11.5 41.5-11.5 41.5z"/>
					<g id="&lt;Group&gt;">
						<path id="&lt;Path&gt;" class="s25" d="m659.3 104.9c0 0 8.1-16.4 9.6 0 0.8 8.6-3.9 10.3-3.9 10.3 0 0 2.3-10.6-5.7-10.3z"/>
					</g>
					<g id="&lt;Group&gt;">
						<path id="&lt;Path&gt;" class="s4" d="m667.2 176.9l-46.2 70.9c0 0 14.6-11.7 23.2-11.3 8.6 0.5 29.3 25 29.3 25l9.5-62.4z"/>
					</g>
					<g id="&lt;Group&gt;">
						<path id="&lt;Path&gt;" class="s4" d="m589.9 191.4c0 0 23.1 26 26.7 32.5 3.6 6.6 4.4 23.9 4.4 23.9 0 0-9.6-15.4-12-15.9-5.5-1.2-26.2 25.3-26.2 25.3 0 0-3.8-27.5 0-58.7z"/>
					</g>
					<path id="&lt;Path&gt;" class="s26" d="m678.1 385c14.4 0 34.6 5.7 57.8 5.7q6.7 0 13-0.1c4-37.5 12.9-117.5 22.2-171.8 0 0 39.2 71 65.4 158.1 0 0 33.5 80.1-57.7 95.8-78.1 13.4-120-5.8-126.8-34.7-6.7-28.9 11.6-53 26.1-53z"/>
					<path id="&lt;Path&gt;" class="s27" d="m678.1 385c14.4 0 34.6 5.7 57.8 5.7q6.7 0 13-0.1c4-37.5 12.9-117.5 22.2-171.8 0 0 39.2 71 65.4 158.1 0 0 33.5 80.1-57.7 95.8-78.1 13.4-120-5.8-126.8-34.7-6.7-28.9 11.6-53 26.1-53z"/>
					<path id="&lt;Path&gt;" class="s28" d="m710.8 429.5c-0.7-14.8-5.8-30.9-23.2-34.4h-26.7c-7.9 9.7-12.9 25.4-8.9 42.9 2.2 9.5 8.3 17.9 18.1 24.5q0.1 0.1 0.2 0.1 3.6 2.4 8 4.5 0.2 0.1 0.5 0.2 1.9 0.9 3.9 1.7 0.4 0.2 0.7 0.3 2.3 0.9 4.8 1.7 0 0 0 0c21.1 6.9 51.3 8.5 90.6 1.7 17.1-3 29.9-8.2 39.2-14.7-30 6.3-54.9 7-74.9 5-17.5-1.7-31.5-15.9-32.3-33.5z"/>
					<g id="&lt;Group&gt;">
						<path id="&lt;Path&gt;" class="s29" d="m623.3 398.1c0 0-11.4-4-18.3-9.2-6.9-5.3-11.8-9.5-19.8-7.9-9.2 1.9-4.9 6.9 0 12.8 4.9 6 12.2 12.2 24 20.7 11.8 8.6 26 10.9 37.5 5.3z"/>
						<path id="&lt;Path&gt;" class="s30" d="m694.1 403.6c-1-6-9.3-11.9-22.2-14.7-19.7-4.3-26-25.5-37.9-33.4-11.8-7.9-36.5-18.4-47.8-15.8-11.4 2.7 0.9 16.7 7.9 29.8 7 13.2 15.4 30.7 36 47.4 20.6 16.6 42.8 24.8 49.8 22.1 13-5 15.7-25.3 14.2-35.4z"/>
						<path id="&lt;Path&gt;" class="s31" d="m612.9 355.5c2.3 5.7 15 9 17.2 14.9 2.2 5.9 10.1 7.6 10.1 7.6 0 0-6.4 3.6-6.2 16.7 0.2 13.2 11.4 27 11.4 27 0 0-26.3-6.6-28.3-29.6l-13.9-6.2c-3.6-5.9-6.4-11.4-9.1-16.4-7-13.1-19.3-27.1-7.9-29.8 11.3-2.6 36 7.9 47.8 15.8-6.5-3.9-23.4-5.7-21.1 0z"/>
					</g>
					<g id="&lt;Group&gt;">
						<path id="&lt;Path&gt;" class="s32" d="m601.8 308.7l-144.4 6c-5.2 0.2-9 5.2-7.7 10.3l32.5 126.8c0.9 3.7 4.4 6.3 8.3 6.2l133.8-4.8c5-0.1 8.7-4.7 7.8-9.6l-21.8-128c-0.7-4.1-4.3-7.1-8.5-6.9z"/>
						<path id="&lt;Path&gt;" class="s33" d="m621 431.3c-5.1-33.8-16.5-103.2-20-110-3.4-6.7-138.4 1-144.2 4.8-1.9 1.3-3.4 4.8-4.5 8.9l-2.6-10c-1.3-5.1 2.5-10.1 7.7-10.3l144.4-6c4.2-0.2 7.8 2.8 8.5 6.9l21.8 128c0.9 4.9-2.8 9.5-7.8 9.6l-1.1 0.1c-0.2-5.2-0.8-12.2-2.2-22z"/>
					</g>
					<path id="&lt;Path&gt;" class="s34" d="m766.2 249.5l0.5-1.7c-4.3 29 10.1 61 10.1 77.4 0 16.4-9.6 36.6-5.7 36.6 3.8 0 37.6 1 19.2 13.5-18.3 12.5-41.5 15.3-41.5 15.3 3.3-30.9 9.9-90.7 17.4-141.1z"/>
					<path id="&lt;Path&gt;" class="s35" d="m447 398.6c2.5-8 13.1-4.8 29.6-8 14.5-2.9 29.9-8.1 33.2-4.2 3.4 3.9 4.9 4.2 4.9 4.2 0 0 10.6 2.5 12 8.8 1.5 6.3-10.6 17.4-10.6 17.4 0 0-23.6 37.8-38.1 36.5-14.4-1.3-14.7-2.5-18.3-5.7-10.1-9.2-18.1-31.7-12.7-49z"/>
					<path id="&lt;Path&gt;" class="s36" d="m514.7 390.6c0 0 10.6 2.5 12 8.8 1.5 6.3-10.6 17.4-10.6 17.4 0 0-23.6 37.8-38.1 36.5q-0.5-0.1-0.9-0.1c-1.1-4.6-2.2-10.3-2.2-14.8 0-8.9 0.7-8.4-0.1-15.5-0.9-7.2-9-6.6-9-6.6 0 0 10.5-4.4 24.3-9.4 13.7-5.1 20.2-13.8 19.7-20.5 3.4 3.9 4.9 4.2 4.9 4.2z"/>
					<path id="&lt;Path&gt;" class="s37" d="m668.9 208.5c5.8-15.4-1.7-31.6-1.7-31.6l15.8 22.2-9.5 62.4c0 0-20.7-24.5-29.3-25 0 0 18.9-12.6 24.7-28z"/>
					<path id="&lt;Path&gt;" class="s38" d="m616.6 223.9c3.6 6.6 4.4 23.9 4.4 23.9 0 0-9.6-15.4-12-15.9-7.3-19.9-19.1-40.5-19.1-40.5 0 0 23.1 26 26.7 32.5z"/>
					<path id="&lt;Path&gt;" class="s39" d="m566.8 82.9c0.6 0 32.7-0.2 59.2-20.9 26.8-21 31.2-20.8 12-33.9q0 0 0 0c10.2 3.1 18.3 6 22.2 6 13.5 0 6.8 22.1-15.4 35.6-18.5 11.3-58.7 21.2-78 13.2z"/>
				</g>
				<path id="&lt;Path&gt;" class="s40" d="m571 576.5c-27.4-4.3-47.5-11.6-61.8-19l-6 92.5h121.5c-0.5-29.1-10-66.6-53.7-73.5z"/>
			</g>
			<g id="&lt;Group&gt;">
			</g>
			<g id="&lt;Group&gt;">
			</g>
		</g>
	</g>
	<g id="DESIGNED BY FREEPIK">
		<g id="&lt;Group&gt;">
			<g id="&lt;Group&gt;">
				<g id="&lt;Group&gt;">
				</g>
			</g>
			<g id="&lt;Group&gt;">
			</g>
		</g>
	</g>
</svg>