<?xml version="1.0" encoding="UTF-8"?>
<!DOCTYPE svg PUBLIC "-//W3C//DTD SVG 1.1//EN" "http://www.w3.org/Graphics/SVG/1.1/DTD/svg11.dtd">
<svg xmlns="http://www.w3.org/2000/svg" version="1.1" width="200px" height="200px" style="shape-rendering:geometricPrecision; text-rendering:geometricPrecision; image-rendering:optimizeQuality; fill-rule:evenodd; clip-rule:evenodd" xmlns:xlink="http://www.w3.org/1999/xlink">
<g><path style="opacity:1" fill="#a8131a" d="M 166.5,29.5 C 170.168,34.0067 173.668,38.6734 177,43.5C 184.055,56.4906 185.888,70.1573 182.5,84.5C 182.898,90.8878 183.731,97.2212 185,103.5C 185.667,111.5 185.667,119.5 185,127.5C 183.246,134.527 179.413,140.027 173.5,144C 162.65,147.862 153.817,154.362 147,163.5C 143.787,172.106 138.953,179.606 132.5,186C 123.989,190.25 114.989,191.584 105.5,190C 99.1667,185.667 92.8333,181.333 86.5,177C 76.5416,175.115 66.5416,173.449 56.5,172C 47.6313,169.122 40.4646,163.956 35,156.5C 32,149.833 29,143.167 26,136.5C 20.6894,131.521 15.6894,126.187 11,120.5C 8.86347,116.454 7.03013,112.454 5.5,108.5C 4.9716,97.3008 6.13827,86.3008 9,75.5C 13.2249,66.0484 18.2249,57.0484 24,48.5C 25.7731,41.5302 27.4397,34.5302 29,27.5C 31.3228,21.6857 35.1562,17.3524 40.5,14.5C 40.6107,13.8826 40.944,13.3826 41.5,13C 45.0605,11.6932 48.7272,10.8598 52.5,10.5C 58.1486,11.4604 63.8153,11.6271 69.5,11C 78.2797,7.07341 87.2797,3.74007 96.5,1C 111.543,-0.149457 124.209,4.85054 134.5,16C 143.258,19.92 152.258,23.2533 161.5,26C 163.233,27.1889 164.9,28.3556 166.5,29.5 Z"/></g>
<g><path style="opacity:1" fill="#e66168" d="M 89.5,10.5 C 84.2647,12.129 79.2647,14.129 74.5,16.5C 72.3037,16.59 70.137,16.9233 68,17.5C 64.937,17.065 64.7703,16.2316 67.5,15C 75.7354,11.715 84.0688,8.71503 92.5,6C 95.8333,5.33333 99.1667,5.33333 102.5,6C 97.7573,6.63511 93.4239,8.13511 89.5,10.5 Z"/></g>
<g><path style="opacity:1" fill="#d21f20" d="M 89.5,10.5 C 93.4239,8.13511 97.7573,6.63511 102.5,6C 99.1667,5.33333 95.8333,5.33333 92.5,6C 84.0688,8.71503 75.7354,11.715 67.5,15C 64.7703,16.2316 64.937,17.065 68,17.5C 70.137,16.9233 72.3037,16.59 74.5,16.5C 73.7375,17.2679 72.7375,17.7679 71.5,18C 62.4747,18.2835 53.4747,18.7835 44.5,19.5C 46.4927,17.8368 48.8261,16.6701 51.5,16C 39.6898,15.1425 33.5232,20.6425 33,32.5C 34.7803,28.5965 37.2803,25.2632 40.5,22.5C 38.4374,25.6184 36.604,28.9518 35,32.5C 33.4774,39.3783 31.6441,46.045 29.5,52.5C 29.6567,51.1266 29.49,49.7932 29,48.5C 27.7225,50.7472 26.2225,52.7472 24.5,54.5C 25.4373,51.7305 26.6039,49.0639 28,46.5C 29.0325,38.3696 30.6992,30.3696 33,22.5C 35.4359,19.7151 37.9359,17.0485 40.5,14.5C 49.1199,13.7237 57.7866,13.2237 66.5,13C 74.9411,10.2785 83.2744,7.27853 91.5,4C 102.514,1.24822 111.847,3.91488 119.5,12C 114.337,9.83862 108.837,8.67196 103,8.5C 98.405,8.64598 93.905,9.31264 89.5,10.5 Z"/></g>
<g><path style="opacity:1" fill="#e66268" d="M 44.5,19.5 C 42.5956,19.7376 41.2623,20.7376 40.5,22.5C 37.2803,25.2632 34.7803,28.5965 33,32.5C 33.5232,20.6425 39.6898,15.1425 51.5,16C 48.8261,16.6701 46.4927,17.8368 44.5,19.5 Z"/></g>
<g><path style="opacity:1" fill="#8c1117" d="M 164.5,56.5 C 163.167,54.5 161.833,52.5 160.5,50.5C 155.787,43.4536 149.787,37.7869 142.5,33.5C 139.402,31.1084 136.069,28.9417 132.5,27C 124.821,23.6311 116.821,21.4644 108.5,20.5C 70.2421,18.3953 43.4088,35.062 28,70.5C 24.0628,81.7243 22.8961,93.0576 24.5,104.5C 25.8861,114.991 28.8861,124.991 33.5,134.5C 21.844,117.597 18.0107,98.9301 22,78.5C 30.7086,45.1246 51.8752,24.6246 85.5,17C 119.776,13.195 146.276,25.695 165,54.5C 165.692,55.4368 165.525,56.1034 164.5,56.5 Z"/></g>
<g><path style="opacity:1" fill="#9c171d" d="M 108.5,20.5 C 103.489,20.3341 98.4889,20.5007 93.5,21C 94.8331,22.8402 94.6665,23.3402 93,22.5C 56.9686,29.5311 35.1352,51.0311 27.5,87C 27.4042,90.2874 27.4042,93.6207 27.5,97C 26.763,99.7993 25.9297,99.9659 25,97.5C 24.5034,99.8098 24.3367,102.143 24.5,104.5C 22.8961,93.0576 24.0628,81.7243 28,70.5C 43.4088,35.062 70.2421,18.3953 108.5,20.5 Z"/></g>
<g><path style="opacity:1" fill="#ac1d23" d="M 108.5,20.5 C 116.821,21.4644 124.821,23.6311 132.5,27C 136.069,28.9417 139.402,31.1084 142.5,33.5C 141.185,34.4756 139.852,35.4756 138.5,36.5C 140.269,38.557 142.269,40.3903 144.5,42C 139.253,41.428 134.086,40.2614 129,38.5C 128.374,40.9913 127.541,40.9913 126.5,38.5C 116.108,43.9254 106.108,49.0921 96.5,54C 97.3402,55.6665 96.8402,55.8331 95,54.5C 92.2934,56.9363 89.1267,58.4363 85.5,59C 87.9288,59.4512 88.0955,60.2845 86,61.5C 82.1713,60.5736 79.1713,61.9069 77,65.5C 76.586,65.0426 76.086,64.7093 75.5,64.5C 71.5746,66.9111 67.7413,69.2444 64,71.5C 63.6667,71.1667 63.3333,70.8333 63,70.5C 58.5909,73.5256 54.2575,75.859 50,77.5C 49.0853,78.3279 48.4186,79.3279 48,80.5C 45.8159,79.8919 43.8159,80.5586 42,82.5C 41.6667,82.1667 41.3333,81.8333 41,81.5C 39.3333,82.5 38,83.8333 37,85.5C 36.6667,84.8333 36.3333,84.1667 36,83.5C 35.34,85.3237 34.1733,86.657 32.5,87.5C 38.2196,54.9482 57.2196,35.4482 89.5,29C 96.1667,28.3333 102.833,28.3333 109.5,29C 114.08,29.4804 118.413,30.6471 122.5,32.5C 123.5,32 124.5,31.5 125.5,31C 90.3178,19.4201 61.8178,28.5867 40,58.5C 32.4019,71.157 29.4019,84.8236 31,99.5C 31.1773,95.6437 31.6773,91.977 32.5,88.5C 32.3162,96.8749 32.8162,105.208 34,113.5C 35.3915,118.131 37.2249,122.464 39.5,126.5C 42.0139,131.018 44.6806,135.518 47.5,140C 46.5509,140.617 45.7175,140.451 45,139.5C 42.0887,136.01 39.422,132.344 37,128.5C 37.2035,130.937 38.0368,133.271 39.5,135.5C 38.7251,137.302 37.7251,137.969 36.5,137.5C 35.7281,136.306 34.7281,135.306 33.5,134.5C 28.8861,124.991 25.8861,114.991 24.5,104.5C 24.3367,102.143 24.5034,99.8098 25,97.5C 25.9297,99.9659 26.763,99.7993 27.5,97C 27.4042,93.6207 27.4042,90.2874 27.5,87C 35.1352,51.0311 56.9686,29.5311 93,22.5C 94.6665,23.3402 94.8331,22.8402 93.5,21C 98.4889,20.5007 103.489,20.3341 108.5,20.5 Z"/></g>
<g><path style="opacity:1" fill="#be171d" d="M 146.5,30.5 C 143.101,27.2867 139.101,24.7867 134.5,23C 133.112,22.1107 133.278,21.6107 135,21.5C 141.621,23.2625 148.121,25.4292 154.5,28C 158.183,29.8409 161.516,32.1742 164.5,35C 159.121,33.2071 153.621,31.3738 148,29.5C 147.235,29.5699 146.735,29.9033 146.5,30.5 Z"/></g>
<g><path style="opacity:1" fill="#99161c" d="M 32.5,87.5 C 32.5,87.8333 32.5,88.1667 32.5,88.5C 31.6773,91.977 31.1773,95.6437 31,99.5C 29.4019,84.8236 32.4019,71.157 40,58.5C 61.8178,28.5867 90.3178,19.4201 125.5,31C 124.5,31.5 123.5,32 122.5,32.5C 118.413,30.6471 114.08,29.4804 109.5,29C 102.833,28.3333 96.1667,28.3333 89.5,29C 57.2196,35.4482 38.2196,54.9482 32.5,87.5 Z"/></g>
<g><path style="opacity:1" fill="#b21c22" d="M 142.5,33.5 C 149.787,37.7869 155.787,43.4536 160.5,50.5C 159.357,50.9081 158.357,51.5748 157.5,52.5C 159.124,53.8689 159.624,55.5355 159,57.5C 157.285,55.2406 155.452,53.0739 153.5,51C 152.668,50.3123 152.002,50.479 151.5,51.5C 154.641,55.4525 156.975,59.7859 158.5,64.5C 156.876,64.3601 155.71,65.0267 155,66.5C 154.667,66.1667 154.333,65.8333 154,65.5C 149.45,67.8756 144.617,70.5423 139.5,73.5C 138.914,73.2907 138.414,72.9574 138,72.5C 137.028,74.3049 135.861,75.9716 134.5,77.5C 132.898,76.45 132.065,77.1167 132,79.5C 131.667,78.8333 131.333,78.1667 131,77.5C 116.835,84.582 102.835,91.9154 89,99.5C 88.6667,99.1667 88.3333,98.8333 88,98.5C 84.9514,101.211 81.6181,103.545 78,105.5C 77.6667,105.167 77.3333,104.833 77,104.5C 75.0892,106.342 73.0892,108.009 71,109.5C 70.586,109.043 70.086,108.709 69.5,108.5C 67.6769,109.491 66.1769,110.824 65,112.5C 63.9505,111.483 62.7839,111.316 61.5,112C 61.8333,112.333 62.1667,112.667 62.5,113C 57.6656,114.672 52.8323,117.172 48,120.5C 46.4345,119.939 45.1011,120.606 44,122.5C 43.6667,122.167 43.3333,121.833 43,121.5C 41.3506,122.885 40.1839,124.551 39.5,126.5C 37.2249,122.464 35.3915,118.131 34,113.5C 32.8162,105.208 32.3162,96.8749 32.5,88.5C 32.5,88.1667 32.5,87.8333 32.5,87.5C 34.1733,86.657 35.34,85.3237 36,83.5C 36.3333,84.1667 36.6667,84.8333 37,85.5C 38,83.8333 39.3333,82.5 41,81.5C 41.3333,81.8333 41.6667,82.1667 42,82.5C 43.8159,80.5586 45.8159,79.8919 48,80.5C 48.4186,79.3279 49.0853,78.3279 50,77.5C 54.2575,75.859 58.5909,73.5256 63,70.5C 63.3333,70.8333 63.6667,71.1667 64,71.5C 67.7413,69.2444 71.5746,66.9111 75.5,64.5C 76.086,64.7093 76.586,65.0426 77,65.5C 79.1713,61.9069 82.1713,60.5736 86,61.5C 88.0955,60.2845 87.9288,59.4512 85.5,59C 89.1267,58.4363 92.2934,56.9363 95,54.5C 96.8402,55.8331 97.3402,55.6665 96.5,54C 106.108,49.0921 116.108,43.9254 126.5,38.5C 127.541,40.9913 128.374,40.9913 129,38.5C 134.086,40.2614 139.253,41.428 144.5,42C 142.269,40.3903 140.269,38.557 138.5,36.5C 139.852,35.4756 141.185,34.4756 142.5,33.5 Z"/></g>
<g><path style="opacity:0.987" fill="#93191d" d="M 166.5,29.5 C 177.79,36.3655 184.957,46.3655 188,59.5C 188.099,82.1893 189.099,104.856 191,127.5C 189.246,135.677 185.413,142.677 179.5,148.5C 171.078,152.642 162.744,156.976 154.5,161.5C 152.081,163.754 150.248,166.421 149,169.5C 146.905,184.539 138.405,193.373 123.5,196C 115.955,197.126 108.621,196.46 101.5,194C 96.5,190.333 91.5,186.667 86.5,183C 76.9389,180.875 67.2723,179.209 57.5,178C 49.3543,175.526 42.521,171.026 37,164.5C 32.4394,157.172 28.4394,149.505 25,141.5C 20.3333,136.167 15.6667,130.833 11,125.5C 7.8572,120.239 6.02387,114.572 5.5,108.5C 7.03013,112.454 8.86347,116.454 11,120.5C 15.6894,126.187 20.6894,131.521 26,136.5C 29,143.167 32,149.833 35,156.5C 40.4646,163.956 47.6313,169.122 56.5,172C 66.5416,173.449 76.5416,175.115 86.5,177C 92.8333,181.333 99.1667,185.667 105.5,190C 114.989,191.584 123.989,190.25 132.5,186C 138.953,179.606 143.787,172.106 147,163.5C 153.817,154.362 162.65,147.862 173.5,144C 179.413,140.027 183.246,134.527 185,127.5C 185.667,119.5 185.667,111.5 185,103.5C 183.731,97.2212 182.898,90.8878 182.5,84.5C 185.888,70.1573 184.055,56.4906 177,43.5C 173.668,38.6734 170.168,34.0067 166.5,29.5 Z"/></g>
<g><path style="opacity:1" fill="#be171d" d="M 146.5,30.5 C 160.484,39.7691 170.151,52.4358 175.5,68.5C 175.031,73.9921 174.865,79.6587 175,85.5C 173.957,82.2432 173.457,78.9099 173.5,75.5C 171.135,61.7712 165.302,49.7712 156,39.5C 152.333,36.9988 149.166,33.9988 146.5,30.5 Z"/></g>
<g><path style="opacity:1" fill="#e66067" d="M 29.5,52.5 C 24.666,59.4957 20.3327,66.829 16.5,74.5C 15.4415,75.6002 14.6082,76.9336 14,78.5C 13.8333,77.8333 13.6667,77.1667 13.5,76.5C 15.1226,71.2885 17.1226,66.2885 19.5,61.5C 21.5475,59.4504 23.2141,57.117 24.5,54.5C 26.2225,52.7472 27.7225,50.7472 29,48.5C 29.49,49.7932 29.6567,51.1266 29.5,52.5 Z"/></g>
<g><path style="opacity:1" fill="#b91920" d="M 160.5,50.5 C 161.833,52.5 163.167,54.5 164.5,56.5C 166.934,60.2717 168.934,64.2717 170.5,68.5C 169.13,68.8565 168.13,69.6898 167.5,71C 171.909,84.677 172.576,98.5104 169.5,112.5C 168.833,112.5 168.5,112.167 168.5,111.5C 170.404,98.3167 169.571,85.3167 166,72.5C 165.107,71.2888 164.274,71.2888 163.5,72.5C 167.069,83.9528 168.069,95.6195 166.5,107.5C 165.141,106.993 164.141,105.993 163.5,104.5C 141.839,115.02 119.506,126.186 96.5,138C 95.5305,139.758 94.3639,140.258 93,139.5C 85.9344,142.834 79.6011,146.5 74,150.5C 73.6667,150.167 73.3333,149.833 73,149.5C 70.3926,150.809 68.0593,152.476 66,154.5C 61.3925,151.564 57.0592,148.23 53,144.5C 52.3333,145.5 52.3333,146.5 53,147.5C 54.6579,149.323 56.4912,150.99 58.5,152.5C 58.1667,152.833 57.8333,153.167 57.5,153.5C 53.8579,151.025 50.3579,148.358 47,145.5C 45.9614,146.244 45.4614,147.244 45.5,148.5C 42.1518,145.149 39.1518,141.482 36.5,137.5C 37.7251,137.969 38.7251,137.302 39.5,135.5C 38.0368,133.271 37.2035,130.937 37,128.5C 39.422,132.344 42.0887,136.01 45,139.5C 45.7175,140.451 46.5509,140.617 47.5,140C 44.6806,135.518 42.0139,131.018 39.5,126.5C 40.1839,124.551 41.3506,122.885 43,121.5C 43.3333,121.833 43.6667,122.167 44,122.5C 45.1011,120.606 46.4345,119.939 48,120.5C 52.8323,117.172 57.6656,114.672 62.5,113C 62.1667,112.667 61.8333,112.333 61.5,112C 62.7839,111.316 63.9505,111.483 65,112.5C 66.1769,110.824 67.6769,109.491 69.5,108.5C 70.086,108.709 70.586,109.043 71,109.5C 73.0892,108.009 75.0892,106.342 77,104.5C 77.3333,104.833 77.6667,105.167 78,105.5C 81.6181,103.545 84.9514,101.211 88,98.5C 88.3333,98.8333 88.6667,99.1667 89,99.5C 102.835,91.9154 116.835,84.582 131,77.5C 131.333,78.1667 131.667,78.8333 132,79.5C 132.065,77.1167 132.898,76.45 134.5,77.5C 135.861,75.9716 137.028,74.3049 138,72.5C 138.414,72.9574 138.914,73.2907 139.5,73.5C 144.617,70.5423 149.45,67.8756 154,65.5C 154.333,65.8333 154.667,66.1667 155,66.5C 155.71,65.0267 156.876,64.3601 158.5,64.5C 156.975,59.7859 154.641,55.4525 151.5,51.5C 152.002,50.479 152.668,50.3123 153.5,51C 155.452,53.0739 157.285,55.2406 159,57.5C 159.624,55.5355 159.124,53.8689 157.5,52.5C 158.357,51.5748 159.357,50.9081 160.5,50.5 Z"/></g>
<g><path style="opacity:1" fill="#ca1b1e" d="M 19.5,61.5 C 17.1226,66.2885 15.1226,71.2885 13.5,76.5C 13.6667,77.1667 13.8333,77.8333 14,78.5C 14.6082,76.9336 15.4415,75.6002 16.5,74.5C 15.243,78.4413 14.0764,82.4413 13,86.5C 12.5576,95.8544 12.5576,105.188 13,114.5C 11.4728,112.779 10.4728,110.779 10,108.5C 8.35498,94.4758 9.68832,80.8092 14,67.5C 16.0916,65.5253 17.9249,63.5253 19.5,61.5 Z"/></g>
<g><path style="opacity:1" fill="#da201e" d="M 170.5,68.5 C 171.323,70.9872 172.323,73.3206 173.5,75.5C 173.457,78.9099 173.957,82.2432 175,85.5C 174.865,79.6587 175.031,73.9921 175.5,68.5C 180.71,82.3151 181.71,96.3151 178.5,110.5C 178.665,106.818 178.499,103.152 178,99.5C 174.512,112.635 169.845,125.301 164,137.5C 144.921,162.926 119.421,174.593 87.5,172.5C 87.9175,171.778 88.5842,171.278 89.5,171C 81.5427,169.457 73.876,167.124 66.5,164C 68.3553,163.578 70.1886,163.078 72,162.5C 109.52,174.438 139.52,164.438 162,132.5C 165.354,126.131 167.854,119.464 169.5,112.5C 172.576,98.5104 171.909,84.677 167.5,71C 168.13,69.6898 169.13,68.8565 170.5,68.5 Z"/></g>
<g><path style="opacity:1" fill="#d81e1d" d="M 168.5,111.5 C 153.122,155.696 122.456,172.53 76.5,162C 72.2211,160.527 68.2211,158.527 64.5,156C 65.8333,155.333 67.1667,155.333 68.5,156C 99.5678,169.515 127.068,164.349 151,140.5C 158.869,130.761 164.036,119.761 166.5,107.5C 168.069,95.6195 167.069,83.9528 163.5,72.5C 164.274,71.2888 165.107,71.2888 166,72.5C 169.571,85.3167 170.404,98.3167 168.5,111.5 Z"/></g>
<g><path style="opacity:1" fill="#c0181e" d="M 166.5,107.5 C 164.036,119.761 158.869,130.761 151,140.5C 127.068,164.349 99.5678,169.515 68.5,156C 67.1667,155.333 65.8333,155.333 64.5,156C 68.2211,158.527 72.2211,160.527 76.5,162C 122.456,172.53 153.122,155.696 168.5,111.5C 168.5,112.167 168.833,112.5 169.5,112.5C 167.854,119.464 165.354,126.131 162,132.5C 139.52,164.438 109.52,174.438 72,162.5C 70.1886,163.078 68.3553,163.578 66.5,164C 73.876,167.124 81.5427,169.457 89.5,171C 88.5842,171.278 87.9175,171.778 87.5,172.5C 85.5853,172.216 83.9187,172.549 82.5,173.5C 64.3149,170.156 49.1482,161.49 37,147.5C 36.2515,145.668 35.2515,144.001 34,142.5C 33.0181,141.241 32.6848,139.908 33,138.5C 37.7276,145.246 43.5609,150.413 50.5,154C 48.6266,152.296 46.9599,150.463 45.5,148.5C 45.4614,147.244 45.9614,146.244 47,145.5C 50.3579,148.358 53.8579,151.025 57.5,153.5C 57.8333,153.167 58.1667,152.833 58.5,152.5C 56.4912,150.99 54.6579,149.323 53,147.5C 52.3333,146.5 52.3333,145.5 53,144.5C 57.0592,148.23 61.3925,151.564 66,154.5C 68.0593,152.476 70.3926,150.809 73,149.5C 73.3333,149.833 73.6667,150.167 74,150.5C 79.6011,146.5 85.9344,142.834 93,139.5C 94.3639,140.258 95.5305,139.758 96.5,138C 119.506,126.186 141.839,115.02 163.5,104.5C 164.141,105.993 165.141,106.993 166.5,107.5 Z"/></g>
<g><path style="opacity:1" fill="#e66067" d="M 178.5,110.5 C 175.483,123.54 169.983,135.54 162,146.5C 154.256,150.909 147.756,156.742 142.5,164C 139.609,165.274 136.942,166.774 134.5,168.5C 119.402,174.734 103.735,176.734 87.5,174.5C 85.7839,174.371 84.1172,174.038 82.5,173.5C 83.9187,172.549 85.5853,172.216 87.5,172.5C 119.421,174.593 144.921,162.926 164,137.5C 169.845,125.301 174.512,112.635 178,99.5C 178.499,103.152 178.665,106.818 178.5,110.5 Z"/></g>
<g><path style="opacity:1" fill="#d02526" d="M 134.5,168.5 C 127.876,172.653 120.543,175.153 112.5,176C 104.833,176.667 97.1667,176.667 89.5,176C 88.5842,175.722 87.9175,175.222 87.5,174.5C 103.735,176.734 119.402,174.734 134.5,168.5 Z"/></g>
</svg>
