<?xml version="1.0" encoding="UTF-8"?>
<!DOCTYPE svg PUBLIC "-//W3C//DTD SVG 1.1//EN" "http://www.w3.org/Graphics/SVG/1.1/DTD/svg11.dtd">
<svg xmlns="http://www.w3.org/2000/svg" version="1.1" width="200px" height="200px" style="shape-rendering:geometricPrecision; text-rendering:geometricPrecision; image-rendering:optimizeQuality; fill-rule:evenodd; clip-rule:evenodd" xmlns:xlink="http://www.w3.org/1999/xlink">
<g><path style="opacity:0.948" fill="#fbdc9f" d="M 35.5,-0.5 C 38.5,-0.5 41.5,-0.5 44.5,-0.5C 50.6203,1.07797 56.9536,2.24464 63.5,3C 80.6691,4.67516 97.8358,6.17516 115,7.5C 119.5,7.33333 124,7.16667 128.5,7C 139.106,4.07878 149.939,1.91211 161,0.5C 164.492,0.330105 166.992,1.83011 168.5,5C 169.546,9.11009 170.213,13.2768 170.5,17.5C 162.737,18.3099 155.237,18.3099 148,17.5C 126.25,18.8088 104.584,20.4754 83,22.5C 78.8028,22.4353 74.6361,22.102 70.5,21.5C 61.4984,23.6833 52.4984,24.3499 43.5,23.5C 42.2345,15.0369 39.5679,7.03694 35.5,-0.5 Z"/></g>
<g><path style="opacity:0.996" fill="#fce1a1" d="M 170.5,17.5 C 170.5,18.1667 170.5,18.8333 170.5,19.5C 169.878,20.6266 169.045,21.6266 168,22.5C 163.2,22.6909 158.533,22.3576 154,21.5C 152.941,21.6301 152.108,22.1301 151.5,23C 154.167,23.3333 156.833,23.6667 159.5,24C 153.859,25.153 149.025,24.3197 145,21.5C 144.5,22 144,22.5 143.5,23C 137.449,23.2601 131.449,23.9268 125.5,25C 127.833,25.3333 130.167,25.6667 132.5,26C 127.575,26.7024 122.908,25.869 118.5,23.5C 106.376,24.7818 94.2091,25.7818 82,26.5C 77.9297,25.9997 73.7631,26.3331 69.5,27.5C 68.5581,27.3918 67.7247,27.0585 67,26.5C 67.0773,27.7376 66.9106,28.7376 66.5,29.5C 62.152,27.9131 57.652,26.9131 53,26.5C 52.2096,28.7898 50.8763,29.1231 49,27.5C 46.8485,27.7649 45.1819,28.7649 44,30.5C 43.5034,28.1902 43.3367,25.8568 43.5,23.5C 52.4984,24.3499 61.4984,23.6833 70.5,21.5C 74.6361,22.102 78.8028,22.4353 83,22.5C 104.584,20.4754 126.25,18.8088 148,17.5C 155.237,18.3099 162.737,18.3099 170.5,17.5 Z"/></g>
<g><path style="opacity:0.989" fill="#fde5a4" d="M 29.5,-0.5 C 31.5,-0.5 33.5,-0.5 35.5,-0.5C 39.5679,7.03694 42.2345,15.0369 43.5,23.5C 43.3367,25.8568 43.5034,28.1902 44,30.5C 45.1819,28.7649 46.8485,27.7649 49,27.5C 50.8763,29.1231 52.2096,28.7898 53,26.5C 57.652,26.9131 62.152,27.9131 66.5,29.5C 66.9106,28.7376 67.0773,27.7376 67,26.5C 67.7247,27.0585 68.5581,27.3918 69.5,27.5C 73.7631,26.3331 77.9297,25.9997 82,26.5C 94.2091,25.7818 106.376,24.7818 118.5,23.5C 122.908,25.869 127.575,26.7024 132.5,26C 130.167,25.6667 127.833,25.3333 125.5,25C 131.449,23.9268 137.449,23.2601 143.5,23C 144,22.5 144.5,22 145,21.5C 149.025,24.3197 153.859,25.153 159.5,24C 156.833,23.6667 154.167,23.3333 151.5,23C 152.108,22.1301 152.941,21.6301 154,21.5C 158.533,22.3576 163.2,22.6909 168,22.5C 169.045,21.6266 169.878,20.6266 170.5,19.5C 171.485,23.6344 171.818,27.9677 171.5,32.5C 164.492,32.3337 157.492,32.5004 150.5,33C 150,33.5 149.5,34 149,34.5C 145.419,33.6628 141.919,33.3295 138.5,33.5C 134.178,35.7257 129.678,36.0591 125,34.5C 98.9192,36.4333 72.7526,37.7666 46.5,38.5C 46.6567,39.8734 46.49,41.2068 46,42.5C 45.7679,41.2625 45.2679,40.2625 44.5,39.5C 43.8333,40.5 43.1667,41.5 42.5,42.5C 42.5,40.5 42.5,38.5 42.5,36.5C 42.221,31.7732 41.5544,27.1065 40.5,22.5C 40.3259,20.139 39.9926,17.8056 39.5,15.5C 38.9821,9.72746 36.8154,4.72746 33,0.5C 31.9887,1.33663 30.8221,1.66997 29.5,1.5C 27.3236,5.53341 25.9903,9.86674 25.5,14.5C 25.3348,22.8619 25.6682,31.1952 26.5,39.5C 25.71,38.3915 25.21,37.0581 25,35.5C 24.3333,26.5 24.3333,17.5 25,8.5C 25.9862,5.1943 27.4862,2.1943 29.5,-0.5 Z"/></g>
<g><path style="opacity:1" fill="#f2c98c" d="M 25.5,14.5 C 30.3269,15.452 34.9936,15.7854 39.5,15.5C 39.9926,17.8056 40.3259,20.139 40.5,22.5C 37.6146,22.1936 34.9479,22.5269 32.5,23.5C 30.6481,22.9111 28.8148,22.2444 27,21.5C 26.1881,25.6888 26.3547,29.6888 27.5,33.5C 27.5,35.5 27.5,37.5 27.5,39.5C 27.1667,39.5 26.8333,39.5 26.5,39.5C 25.6682,31.1952 25.3348,22.8619 25.5,14.5 Z"/></g>
<g><path style="opacity:1" fill="#f8d596" d="M 39.5,15.5 C 34.9936,15.7854 30.3269,15.452 25.5,14.5C 25.9903,9.86674 27.3236,5.53341 29.5,1.5C 30.8221,1.66997 31.9887,1.33663 33,0.5C 36.8154,4.72746 38.9821,9.72746 39.5,15.5 Z"/></g>
<g><path style="opacity:1" fill="#fdd997" d="M 40.5,22.5 C 41.5544,27.1065 42.221,31.7732 42.5,36.5C 40.6096,36.2965 39.1096,36.9632 38,38.5C 37.769,34.4159 37.1024,30.4159 36,26.5C 34.8549,25.3636 33.6883,24.3636 32.5,23.5C 34.9479,22.5269 37.6146,22.1936 40.5,22.5 Z"/></g>
<g><path style="opacity:0.994" fill="#fee8a6" d="M 171.5,32.5 C 171.733,42.8652 171.4,53.1985 170.5,63.5C 128.958,65.6671 87.2913,68.0004 45.5,70.5C 45.815,74.3714 45.4816,78.0381 44.5,81.5C 44.5,67.5 44.5,53.5 44.5,39.5C 45.2679,40.2625 45.7679,41.2625 46,42.5C 46.49,41.2068 46.6567,39.8734 46.5,38.5C 72.7526,37.7666 98.9192,36.4333 125,34.5C 129.678,36.0591 134.178,35.7257 138.5,33.5C 141.919,33.3295 145.419,33.6628 149,34.5C 149.5,34 150,33.5 150.5,33C 157.492,32.5004 164.492,32.3337 171.5,32.5 Z"/></g>
<g><path style="opacity:1" fill="#e6ad79" d="M 30.5,44.5 C 28.2729,43.5994 27.2729,41.9328 27.5,39.5C 27.5,37.5 27.5,35.5 27.5,33.5C 27.3433,32.1266 27.51,30.7932 28,29.5C 30.7701,30.3254 33.4367,30.6588 36,30.5C 36.6667,34.1667 36.6667,37.8333 36,41.5C 34.7365,43.607 32.9032,44.607 30.5,44.5 Z"/></g>
<g><path style="opacity:1" fill="#efc187" d="M 32.5,23.5 C 33.6883,24.3636 34.8549,25.3636 36,26.5C 37.1024,30.4159 37.769,34.4159 38,38.5C 39.1096,36.9632 40.6096,36.2965 42.5,36.5C 42.5,38.5 42.5,40.5 42.5,42.5C 42.5,43.1667 42.1667,43.5 41.5,43.5C 39.8583,45.0808 37.8583,45.7475 35.5,45.5C 33.5853,45.7845 31.9187,45.4511 30.5,44.5C 32.9032,44.607 34.7365,43.607 36,41.5C 36.6667,37.8333 36.6667,34.1667 36,30.5C 33.4367,30.6588 30.7701,30.3254 28,29.5C 27.51,30.7932 27.3433,32.1266 27.5,33.5C 26.3547,29.6888 26.1881,25.6888 27,21.5C 28.8148,22.2444 30.6481,22.9111 32.5,23.5 Z"/></g>
<g><path style="opacity:0.176" fill="#faf1b7" d="M 26.5,39.5 C 26.8333,39.5 27.1667,39.5 27.5,39.5C 27.2729,41.9328 28.2729,43.5994 30.5,44.5C 31.9187,45.4511 33.5853,45.7845 35.5,45.5C 32.0471,48.3894 29.2138,47.7227 27,43.5C 26.51,42.2068 26.3433,40.8734 26.5,39.5 Z"/></g>
<g><path style="opacity:0.394" fill="#fdf4ae" d="M 44.5,39.5 C 44.5,53.5 44.5,67.5 44.5,81.5C 44.5,86.1667 44.5,90.8333 44.5,95.5C 43.5166,99.2984 43.1832,103.298 43.5,107.5C 43.5,111.5 43.5,115.5 43.5,119.5C 42.5206,122.625 42.1872,125.958 42.5,129.5C 42.3233,132.984 41.3233,135.984 39.5,138.5C 42.2963,106.871 42.963,75.204 41.5,43.5C 42.1667,43.5 42.5,43.1667 42.5,42.5C 43.1667,41.5 43.8333,40.5 44.5,39.5 Z"/></g>
<g><path style="opacity:0.998" fill="#fde3a2" d="M 170.5,63.5 C 170.371,70.8447 170.038,78.1781 169.5,85.5C 151.614,86.8841 133.614,88.2175 115.5,89.5C 112.713,88.5985 110.047,88.2652 107.5,88.5C 86.9018,90.3307 66.2352,91.3307 45.5,91.5C 45.7678,93.099 45.4345,94.4324 44.5,95.5C 44.5,90.8333 44.5,86.1667 44.5,81.5C 45.4816,78.0381 45.815,74.3714 45.5,70.5C 87.2913,68.0004 128.958,65.6671 170.5,63.5 Z"/></g>
<g><path style="opacity:0.988" fill="#fbdd9f" d="M 169.5,85.5 C 169.663,90.547 169.329,95.547 168.5,100.5C 165.328,99.8741 162.161,99.2074 159,98.5C 156.104,100.745 152.937,101.078 149.5,99.5C 122.039,101.283 94.7056,102.783 67.5,104C 67,104.5 66.5,105 66,105.5C 59.2107,104.56 52.544,104.226 46,104.5C 45.1482,105.571 44.3149,106.571 43.5,107.5C 43.1832,103.298 43.5166,99.2984 44.5,95.5C 45.4345,94.4324 45.7678,93.099 45.5,91.5C 66.2352,91.3307 86.9018,90.3307 107.5,88.5C 110.047,88.2652 112.713,88.5985 115.5,89.5C 133.614,88.2175 151.614,86.8841 169.5,85.5 Z"/></g>
<g><path style="opacity:0.992" fill="#fad79b" d="M 168.5,100.5 C 168.5,105.5 168.5,110.5 168.5,115.5C 166.918,114.124 165.085,113.124 163,112.5C 122.894,114.728 83.0609,117.061 43.5,119.5C 43.5,115.5 43.5,111.5 43.5,107.5C 44.3149,106.571 45.1482,105.571 46,104.5C 52.544,104.226 59.2107,104.56 66,105.5C 66.5,105 67,104.5 67.5,104C 94.7056,102.783 122.039,101.283 149.5,99.5C 152.937,101.078 156.104,100.745 159,98.5C 162.161,99.2074 165.328,99.8741 168.5,100.5 Z"/></g>
<g><path style="opacity:0.993" fill="#f8d197" d="M 168.5,115.5 C 167.687,123.138 167.354,130.804 167.5,138.5C 166.515,134.366 166.182,130.032 166.5,125.5C 159.798,125.978 153.131,126.645 146.5,127.5C 144.894,126.923 143.228,126.59 141.5,126.5C 131.102,128.264 120.602,129.597 110,130.5C 91.3534,131.521 73.5201,131.521 56.5,130.5C 56.5,131.5 56.5,132.5 56.5,133.5C 52.1667,133.5 47.8333,133.5 43.5,133.5C 43.7678,131.901 43.4345,130.568 42.5,129.5C 42.1872,125.958 42.5206,122.625 43.5,119.5C 83.0609,117.061 122.894,114.728 163,112.5C 165.085,113.124 166.918,114.124 168.5,115.5 Z"/></g>
<g><path style="opacity:0.998" fill="#f5ca93" d="M 167.5,138.5 C 167.5,139.5 167.5,140.5 167.5,141.5C 166.287,140.425 164.787,139.759 163,139.5C 156.325,140.12 149.659,140.786 143,141.5C 141.893,141.415 140.893,141.081 140,140.5C 125.006,141.611 110.006,142.611 95,143.5C 94.6667,143.167 94.3333,142.833 94,142.5C 89.3333,143.167 84.6667,143.833 80,144.5C 78.3051,144.776 76.4718,144.443 74.5,143.5C 63.6755,145.619 52.8422,146.286 42,145.5C 41.1482,146.571 40.3149,147.571 39.5,148.5C 39.5,145.833 39.5,143.167 39.5,140.5C 39.5,139.833 39.5,139.167 39.5,138.5C 41.3233,135.984 42.3233,132.984 42.5,129.5C 43.4345,130.568 43.7678,131.901 43.5,133.5C 47.8333,133.5 52.1667,133.5 56.5,133.5C 56.5,132.5 56.5,131.5 56.5,130.5C 73.5201,131.521 91.3534,131.521 110,130.5C 120.602,129.597 131.102,128.264 141.5,126.5C 143.228,126.59 144.894,126.923 146.5,127.5C 153.131,126.645 159.798,125.978 166.5,125.5C 166.182,130.032 166.515,134.366 167.5,138.5 Z"/></g>
<g><path style="opacity:0.998" fill="#f4c38e" d="M 167.5,141.5 C 168.441,146.07 168.774,150.737 168.5,155.5C 155.821,155.525 143.155,155.192 130.5,154.5C 123.847,153.946 117.18,153.612 110.5,153.5C 91.0962,152.374 71.7629,150.874 52.5,149C 55.1521,151.848 57.1521,155.015 58.5,158.5C 58.5,159.5 58.5,160.5 58.5,161.5C 58.8333,162.833 59.1667,164.167 59.5,165.5C 52.3805,165.107 45.3805,165.774 38.5,167.5C 37.5672,171.429 37.2338,175.429 37.5,179.5C 37.5,180.833 37.5,182.167 37.5,183.5C 36.1285,171.856 36.7952,160.189 39.5,148.5C 40.3149,147.571 41.1482,146.571 42,145.5C 52.8422,146.286 63.6755,145.619 74.5,143.5C 76.4718,144.443 78.3051,144.776 80,144.5C 84.6667,143.833 89.3333,143.167 94,142.5C 94.3333,142.833 94.6667,143.167 95,143.5C 110.006,142.611 125.006,141.611 140,140.5C 140.893,141.081 141.893,141.415 143,141.5C 149.659,140.786 156.325,140.12 163,139.5C 164.787,139.759 166.287,140.425 167.5,141.5 Z"/></g>
<g><path style="opacity:1" fill="#fde3a0" d="M 110.5,153.5 C 95.9889,154.671 81.3222,155.671 66.5,156.5C 64.3703,156.242 62.2036,155.909 60,155.5C 59.7679,156.737 59.2679,157.737 58.5,158.5C 57.1521,155.015 55.1521,151.848 52.5,149C 71.7629,150.874 91.0962,152.374 110.5,153.5 Z"/></g>
<g><path style="opacity:1" fill="#f8d999" d="M 110.5,153.5 C 117.18,153.612 123.847,153.946 130.5,154.5C 137.977,155.71 145.643,156.543 153.5,157C 123.345,157.601 93.3448,158.768 63.5,160.5C 62.5581,160.392 61.7247,160.059 61,159.5C 60.5831,160.756 59.7498,161.423 58.5,161.5C 58.5,160.5 58.5,159.5 58.5,158.5C 59.2679,157.737 59.7679,156.737 60,155.5C 62.2036,155.909 64.3703,156.242 66.5,156.5C 81.3222,155.671 95.9889,154.671 110.5,153.5 Z"/></g>
<g><path style="opacity:1" fill="#f4d193" d="M 130.5,154.5 C 143.155,155.192 155.821,155.525 168.5,155.5C 171.709,155.589 174.875,155.256 178,154.5C 180.399,154.613 182.232,155.613 183.5,157.5C 147.802,158.922 112.135,160.589 76.5,162.5C 75.914,162.291 75.414,161.957 75,161.5C 70.3993,162.142 65.8993,162.809 61.5,163.5C 61.4326,164.959 61.7659,166.292 62.5,167.5C 62.5,168.5 62.5,169.5 62.5,170.5C 62.5,171.5 62.5,172.5 62.5,173.5C 62.5,174.167 62.5,174.833 62.5,175.5C 62.5,176.833 62.5,178.167 62.5,179.5C 61.8333,176.833 61.1667,174.167 60.5,171.5C 60.7947,169.265 60.4614,167.265 59.5,165.5C 59.1667,164.167 58.8333,162.833 58.5,161.5C 59.7498,161.423 60.5831,160.756 61,159.5C 61.7247,160.059 62.5581,160.392 63.5,160.5C 93.3448,158.768 123.345,157.601 153.5,157C 145.643,156.543 137.977,155.71 130.5,154.5 Z"/></g>
<g><path style="opacity:0.999" fill="#f0ca8e" d="M 183.5,157.5 C 184.338,157.842 184.672,158.508 184.5,159.5C 143.611,161.948 102.611,163.281 61.5,163.5C 65.8993,162.809 70.3993,162.142 75,161.5C 75.414,161.957 75.914,162.291 76.5,162.5C 112.135,160.589 147.802,158.922 183.5,157.5 Z"/></g>
<g><path style="opacity:0.999" fill="#e4b880" d="M 186.5,164.5 C 186.5,165.167 186.5,165.833 186.5,166.5C 145.065,168.202 103.732,169.536 62.5,170.5C 62.5,169.5 62.5,168.5 62.5,167.5C 63.4584,167.953 64.2917,168.619 65,169.5C 105.428,167.527 145.928,165.86 186.5,164.5 Z"/></g>
<g><path style="opacity:1" fill="#f0b785" d="M 59.5,165.5 C 60.4614,167.265 60.7947,169.265 60.5,171.5C 60.5,173.833 60.5,176.167 60.5,178.5C 59.8826,178.389 59.3826,178.056 59,177.5C 51.6821,178.483 44.5154,179.15 37.5,179.5C 37.2338,175.429 37.5672,171.429 38.5,167.5C 45.3805,165.774 52.3805,165.107 59.5,165.5 Z"/></g>
<g><path style="opacity:1" fill="#e9c085" d="M 184.5,159.5 C 185.931,160.78 186.598,162.447 186.5,164.5C 145.928,165.86 105.428,167.527 65,169.5C 64.2917,168.619 63.4584,167.953 62.5,167.5C 61.7659,166.292 61.4326,164.959 61.5,163.5C 102.611,163.281 143.611,161.948 184.5,159.5 Z"/></g>
<g><path style="opacity:1" fill="#e1b17b" d="M 186.5,166.5 C 186.5,167.167 186.5,167.833 186.5,168.5C 145.17,170.167 103.837,171.833 62.5,173.5C 62.5,172.5 62.5,171.5 62.5,170.5C 103.732,169.536 145.065,168.202 186.5,166.5 Z"/></g>
<g><path style="opacity:0.297" fill="#fcefb4" d="M 39.5,140.5 C 39.5,143.167 39.5,145.833 39.5,148.5C 36.7952,160.189 36.1285,171.856 37.5,183.5C 37.2053,185.735 37.5386,187.735 38.5,189.5C 38.5,190.5 38.5,191.5 38.5,192.5C 37.0689,192.119 36.2355,191.119 36,189.5C 34.1482,172.749 35.3148,156.416 39.5,140.5 Z"/></g>
<g><path style="opacity:1" fill="#ddaa75" d="M 186.5,168.5 C 186.5,169.5 186.5,170.5 186.5,171.5C 145.191,173.499 103.858,174.832 62.5,175.5C 62.5,174.833 62.5,174.167 62.5,173.5C 103.837,171.833 145.17,170.167 186.5,168.5 Z"/></g>
<g><path style="opacity:0.999" fill="#d7a06f" d="M 186.5,171.5 C 186.795,173.735 186.461,175.735 185.5,177.5C 183.603,176.195 181.269,175.529 178.5,175.5C 139.855,177.499 101.188,178.833 62.5,179.5C 62.5,178.167 62.5,176.833 62.5,175.5C 103.858,174.832 145.191,173.499 186.5,171.5 Z"/></g>
<g><path style="opacity:0.999" fill="#d19868" d="M 185.5,177.5 C 185.5,178.167 185.167,178.5 184.5,178.5C 146.076,179.107 107.576,180.44 69,182.5C 66.5505,182.342 64.3838,181.675 62.5,180.5C 62.5,180.167 62.5,179.833 62.5,179.5C 101.188,178.833 139.855,177.499 178.5,175.5C 181.269,175.529 183.603,176.195 185.5,177.5 Z"/></g>
<g><path style="opacity:1" fill="#efad77" d="M 60.5,178.5 C 60.7678,180.099 60.4345,181.432 59.5,182.5C 59.5654,182.062 59.3988,181.728 59,181.5C 52.3134,183.181 45.4801,183.848 38.5,183.5C 38.5,185.5 38.5,187.5 38.5,189.5C 37.5386,187.735 37.2053,185.735 37.5,183.5C 37.5,182.167 37.5,180.833 37.5,179.5C 44.5154,179.15 51.6821,178.483 59,177.5C 59.3826,178.056 59.8826,178.389 60.5,178.5 Z"/></g>
<g><path style="opacity:0.734" fill="#ce9366" d="M 184.5,178.5 C 184.423,179.75 183.756,180.583 182.5,181C 166.475,181.448 150.475,182.281 134.5,183.5C 132.603,182.195 130.269,181.529 127.5,181.5C 105.296,182.814 83.2957,183.814 61.5,184.5C 61.8333,183.167 62.1667,181.833 62.5,180.5C 64.3838,181.675 66.5505,182.342 69,182.5C 107.576,180.44 146.076,179.107 184.5,178.5 Z"/></g>
<g><path style="opacity:0.952" fill="#ca8c61" d="M 134.5,183.5 C 124.947,185.404 115.28,186.904 105.5,188C 92.7464,191.753 79.7464,194.753 66.5,197C 61.5518,198.05 56.5518,198.55 51.5,198.5C 52.6002,197.442 53.9336,196.608 55.5,196C 56.2524,195.329 56.5858,194.496 56.5,193.5C 59.4053,191.244 61.072,188.244 61.5,184.5C 83.2957,183.814 105.296,182.814 127.5,181.5C 130.269,181.529 132.603,182.195 134.5,183.5 Z"/></g>
<g><path style="opacity:1" fill="#eca56a" d="M 59.5,182.5 C 59.1075,186.342 58.1075,190.009 56.5,193.5C 54.2228,194.449 52.2228,195.782 50.5,197.5C 48.1432,197.663 45.8098,197.497 43.5,197C 41.9379,195.366 40.2713,193.866 38.5,192.5C 38.5,191.5 38.5,190.5 38.5,189.5C 38.5,187.5 38.5,185.5 38.5,183.5C 45.4801,183.848 52.3134,183.181 59,181.5C 59.3988,181.728 59.5654,182.062 59.5,182.5 Z"/></g>
<g><path style="opacity:1" fill="#e8bb7f" d="M 60.5,171.5 C 61.1667,174.167 61.8333,176.833 62.5,179.5C 62.5,179.833 62.5,180.167 62.5,180.5C 62.1667,181.833 61.8333,183.167 61.5,184.5C 61.072,188.244 59.4053,191.244 56.5,193.5C 58.1075,190.009 59.1075,186.342 59.5,182.5C 60.4345,181.432 60.7678,180.099 60.5,178.5C 60.5,176.167 60.5,173.833 60.5,171.5 Z"/></g>
<g><path style="opacity:0.353" fill="#fbeeae" d="M 38.5,192.5 C 40.2713,193.866 41.9379,195.366 43.5,197C 45.8098,197.497 48.1432,197.663 50.5,197.5C 50.5,197.833 50.5,198.167 50.5,198.5C 46.7432,198.929 43.2432,198.263 40,196.5C 39.2086,195.255 38.7086,193.922 38.5,192.5 Z"/></g>
<g><path style="opacity:1" fill="#eac485" d="M 56.5,193.5 C 56.5858,194.496 56.2524,195.329 55.5,196C 53.9336,196.608 52.6002,197.442 51.5,198.5C 51.1667,198.5 50.8333,198.5 50.5,198.5C 50.5,198.167 50.5,197.833 50.5,197.5C 52.2228,195.782 54.2228,194.449 56.5,193.5 Z"/></g>
</svg>
